<svg width="206" height="41" viewBox="0 0 206 41" fill="none" xmlns="http://www.w3.org/2000/svg">
<path opacity="0.6" d="M5.936 8.76C5.936 6.856 5.67467 5.456 5.152 4.56C4.62933 3.62666 3.584 3.16 2.016 3.16H0.896V2.04H15.568C22.8107 2.04 28.28 3.64533 31.976 6.856C35.7093 10.0667 37.576 14.5467 37.576 20.296C37.576 23.992 36.792 27.2587 35.224 30.096C33.656 32.896 31.3227 35.08 28.224 36.648C25.1627 38.216 21.4293 39 17.024 39H5.936V8.76ZM16.856 37.04C19.6187 37.04 22.1013 36.368 24.304 35.024C26.544 33.6427 28.2987 31.72 29.568 29.256C30.8373 26.7547 31.472 23.8427 31.472 20.52C31.472 17.272 30.8373 14.3973 29.568 11.896C28.336 9.39467 26.6 7.45333 24.36 6.072C22.12 4.69067 19.5813 4 16.744 4C14.952 4 13.0853 4.29867 11.144 4.896V36.312C13.2347 36.7973 15.1387 37.04 16.856 37.04ZM51.1844 8.76C51.1844 6.856 50.9231 5.456 50.4004 4.56C49.8778 3.62666 48.8324 3.16 47.2644 3.16H46.1444V2.04H70.0004C73.1738 2.04 74.7604 3.53333 74.7604 6.52V10.72H73.6404C73.6404 6.42667 71.3071 4.28 66.6404 4.28H56.2244V18.84H71.3444V21.08H56.2244V36.76H66.0244C68.6004 36.76 70.6164 36.2933 72.0724 35.36C73.5284 34.4267 74.6858 32.84 75.5444 30.6L76.6644 30.88L74.7044 36.2C74.0324 38.0667 72.6324 39 70.5044 39H51.1844V8.76ZM103.704 40.12C100.232 40.12 97.1704 39.28 94.5197 37.6C91.9064 35.92 89.8904 33.6427 88.4717 30.768C87.053 27.856 86.3437 24.6267 86.3437 21.08C86.3437 17.4213 87.109 14.0427 88.6397 10.944C90.2077 7.84533 92.317 5.4 94.9677 3.608C97.6557 1.816 100.568 0.92 103.704 0.92C106.69 0.92 109.304 1.34933 111.544 2.208C113.821 3.02933 115.501 4.09333 116.584 5.4C117.218 6.184 117.61 7.22933 117.76 8.536C117.909 9.80533 117.984 11.56 117.984 13.8H116.864C116.154 10.1787 114.848 7.50933 112.944 5.792C111.04 4.03733 108.52 3.16 105.384 3.16C101.352 3.16 98.1037 4.57866 95.6397 7.416C93.1757 10.2533 91.9437 14.808 91.9437 21.08C91.9437 24.0293 92.4104 26.7733 93.3437 29.312C94.3144 31.8507 95.8077 33.9227 97.8237 35.528C99.8397 37.096 102.36 37.88 105.384 37.88C108.109 37.88 110.48 37.2267 112.496 35.92C114.549 34.6133 116.378 32.6533 117.984 30.04L119.104 30.88C117.386 34.24 115.258 36.6293 112.72 38.048C110.218 39.4293 107.213 40.12 103.704 40.12ZM146.658 40.12C143.186 40.12 140.125 39.2613 137.474 37.544C134.861 35.8267 132.845 33.4747 131.426 30.488C130.007 27.5013 129.298 24.1787 129.298 20.52C129.298 16.8613 130.007 13.5387 131.426 10.552C132.845 7.56533 134.861 5.21333 137.474 3.496C140.125 1.77867 143.186 0.92 146.658 0.92C150.13 0.92 153.173 1.77867 155.786 3.496C158.437 5.21333 160.471 7.56533 161.89 10.552C163.309 13.5387 164.018 16.8613 164.018 20.52C164.018 24.1787 163.309 27.5013 161.89 30.488C160.471 33.4747 158.437 35.8267 155.786 37.544C153.173 39.2613 150.13 40.12 146.658 40.12ZM146.658 37.88C149.085 37.88 151.175 37.1707 152.93 35.752C154.722 34.3333 156.085 32.336 157.018 29.76C157.951 27.1467 158.418 24.0667 158.418 20.52C158.418 16.9733 157.951 13.912 157.018 11.336C156.085 8.72267 154.722 6.70667 152.93 5.288C151.175 3.86933 149.085 3.16 146.658 3.16C144.231 3.16 142.122 3.86933 140.33 5.288C138.575 6.70667 137.231 8.72267 136.298 11.336C135.365 13.912 134.898 16.9733 134.898 20.52C134.898 24.0667 135.365 27.1467 136.298 29.76C137.231 32.336 138.575 34.3333 140.33 35.752C142.122 37.1707 144.231 37.88 146.658 37.88ZM202.382 39.56C200.404 39.56 198.668 38.9813 197.174 37.824C195.718 36.6293 194.094 34.5013 192.302 31.44L186.702 21.92H182.782V39H177.742V8.76C177.742 6.856 177.481 5.456 176.958 4.56C176.436 3.62666 175.39 3.16 173.822 3.16H172.702V2.04H187.262C190.809 2.04 194.02 2.74933 196.894 4.168C199.806 5.54933 201.262 8.2 201.262 12.12C201.262 17.0853 198.276 20.2587 192.302 21.64L198.182 31.44C199.564 33.7547 200.796 35.3787 201.878 36.312C202.998 37.208 204.286 37.7307 205.742 37.88V39C205.406 39.1493 204.921 39.28 204.286 39.392C203.689 39.504 203.054 39.56 202.382 39.56ZM186.982 19.96C188.14 19.96 189.39 19.68 190.734 19.12C192.116 18.56 193.273 17.6827 194.206 16.488C195.177 15.2933 195.662 13.8373 195.662 12.12C195.662 10.2907 195.177 8.77866 194.206 7.584C193.273 6.352 192.116 5.456 190.734 4.896C189.39 4.29867 188.14 4 186.982 4C185.676 4 184.276 4.18667 182.782 4.56V19.4C184.276 19.7733 185.676 19.96 186.982 19.96Z" fill="#AF5B82"/>
</svg>
