<svg width="175" height="42" viewBox="0 0 175 42" fill="none" xmlns="http://www.w3.org/2000/svg">
<path opacity="0.6" d="M5.936 8.76C5.936 6.856 5.67467 5.456 5.152 4.56C4.62933 3.62666 3.584 3.16 2.016 3.16H0.896V2.04H5.936C7.31733 2.04 8.344 2.22667 9.016 2.6C9.72533 2.936 10.2293 3.57066 10.528 4.504C10.8267 5.43733 10.976 6.856 10.976 8.76V18.84H27.776V2.04H32.816V32.28C32.816 34.184 33.0773 35.6027 33.6 36.536C34.1227 37.432 35.168 37.88 36.736 37.88H37.856V39H32.816C31.4347 39 30.3893 38.832 29.68 38.496C29.008 38.1227 28.5227 37.4693 28.224 36.536C27.9253 35.6027 27.776 34.184 27.776 32.28V21.08H10.976V39H5.936V8.76ZM63.9813 40.12C60.5093 40.12 57.448 39.2613 54.7973 37.544C52.184 35.8267 50.168 33.4747 48.7493 30.488C47.3306 27.5013 46.6213 24.1787 46.6213 20.52C46.6213 16.8613 47.3306 13.5387 48.7493 10.552C50.168 7.56533 52.184 5.21333 54.7973 3.496C57.448 1.77867 60.5093 0.92 63.9813 0.92C67.4533 0.92 70.496 1.77867 73.1093 3.496C75.76 5.21333 77.7946 7.56533 79.2133 10.552C80.632 13.5387 81.3413 16.8613 81.3413 20.52C81.3413 24.1787 80.632 27.5013 79.2133 30.488C77.7946 33.4747 75.76 35.8267 73.1093 37.544C70.496 39.2613 67.4533 40.12 63.9813 40.12ZM63.9813 37.88C66.408 37.88 68.4986 37.1707 70.2533 35.752C72.0453 34.3333 73.408 32.336 74.3413 29.76C75.2746 27.1467 75.7413 24.0667 75.7413 20.52C75.7413 16.9733 75.2746 13.912 74.3413 11.336C73.408 8.72267 72.0453 6.70667 70.2533 5.288C68.4986 3.86933 66.408 3.16 63.9813 3.16C61.5546 3.16 59.4453 3.86933 57.6533 5.288C55.8986 6.70667 54.5546 8.72267 53.6213 11.336C52.688 13.912 52.2213 16.9733 52.2213 20.52C52.2213 24.0667 52.688 27.1467 53.6213 29.76C54.5546 32.336 55.8986 34.3333 57.6533 35.752C59.4453 37.1707 61.5546 37.88 63.9813 37.88ZM136.608 41.52C133.92 41.52 131.83 41.1093 130.336 40.288C128.843 39.4667 127.779 38.1973 127.144 36.48C126.547 34.7253 126.248 32.392 126.248 29.48V7.92L112.248 39H111.128L96.5685 7.36V39H94.3285V2.04H99.6485L113.088 31.16L126.248 2.04H131.288V29.48C131.288 32.952 131.718 35.64 132.576 37.544C133.472 39.448 134.816 40.4 136.608 40.4V41.52ZM148.627 8.76C148.627 6.856 148.365 5.456 147.843 4.56C147.32 3.62666 146.275 3.16 144.707 3.16H143.587V2.04H167.443C170.616 2.04 172.203 3.53333 172.203 6.52V10.72H171.083C171.083 6.42667 168.749 4.28 164.083 4.28H153.667V18.84H168.787V21.08H153.667V36.76H163.467C166.043 36.76 168.059 36.2933 169.515 35.36C170.971 34.4267 172.128 32.84 172.987 30.6L174.107 30.88L172.147 36.2C171.475 38.0667 170.075 39 167.947 39H148.627V8.76Z" fill="#C56D86"/>
</svg>
