<svg width="121" height="88" viewBox="0 0 121 88" fill="none" xmlns="http://www.w3.org/2000/svg">
<path d="M6.82498 73.28C5.95698 73.28 5.19165 73.07 4.52898 72.65C3.87565 72.23 3.37165 71.6607 3.01698 70.942C2.66232 70.214 2.48498 69.4067 2.48498 68.52C2.48498 67.6053 2.67632 66.7607 3.05898 65.986C3.45098 65.2113 3.97832 64.6 4.64098 64.152C5.31298 63.704 6.04098 63.48 6.82498 63.48C7.57165 63.48 8.22498 63.5873 8.78498 63.802C9.35432 64.0073 9.77432 64.2733 10.045 64.6C10.2037 64.796 10.3017 65.0573 10.339 65.384C10.3763 65.7013 10.395 66.14 10.395 66.7H10.115C9.93765 65.7947 9.61098 65.1273 9.13498 64.698C8.65898 64.2593 8.02898 64.04 7.24498 64.04C6.23698 64.04 5.42498 64.3947 4.80898 65.104C4.19298 65.8133 3.88498 66.952 3.88498 68.52C3.88498 69.2573 4.00165 69.9433 4.23498 70.578C4.47765 71.2127 4.85098 71.7307 5.35498 72.132C5.85898 72.524 6.48898 72.72 7.24498 72.72C7.92632 72.72 8.51898 72.5567 9.02298 72.23C9.53632 71.9033 9.99365 71.4133 10.395 70.76L10.675 70.97C10.2457 71.81 9.71365 72.4073 9.07898 72.762C8.45365 73.1073 7.70232 73.28 6.82498 73.28ZM13.4755 73.14C13.1769 73.14 12.8735 73.0793 12.5655 72.958C12.2575 72.8273 11.9915 72.6173 11.7675 72.328C11.5529 72.0387 11.4455 71.656 11.4455 71.18C11.4455 70.4707 11.7722 69.9667 12.4255 69.668C13.0882 69.3693 13.9515 69.22 15.0155 69.22H15.4355C15.4355 68.3053 15.3095 67.68 15.0575 67.344C14.8055 67.008 14.4415 66.84 13.9655 66.84C13.5455 66.84 13.2095 66.9287 12.9575 67.106C12.7055 67.2833 12.5282 67.5913 12.4255 68.03H11.7955C11.7955 67.7127 11.8142 67.4653 11.8515 67.288C11.8889 67.1013 11.9869 66.9287 12.1455 66.77C12.3135 66.602 12.5889 66.4807 12.9715 66.406C13.3635 66.322 13.7882 66.28 14.2455 66.28C15.0015 66.28 15.5989 66.4853 16.0375 66.896C16.4762 67.2973 16.6955 68.072 16.6955 69.22V73H15.9955L15.5055 72.37H15.4355C15.2675 72.5847 15.0202 72.7667 14.6935 72.916C14.3669 73.0653 13.9609 73.14 13.4755 73.14ZM14.1055 72.51C14.4135 72.51 14.6702 72.4353 14.8755 72.286C15.0809 72.1367 15.2675 71.9313 15.4355 71.67V69.78H15.0155C14.3249 69.78 13.7789 69.9107 13.3775 70.172C12.9762 70.424 12.7755 70.76 12.7755 71.18C12.7755 71.6093 12.9015 71.9407 13.1535 72.174C13.4149 72.398 13.7322 72.51 14.1055 72.51ZM18.4798 68.1C18.4798 67.624 18.4144 67.274 18.2838 67.05C18.1531 66.8167 17.8918 66.7 17.4998 66.7H17.3598V66.42H18.4798C18.8344 66.42 19.1004 66.4713 19.2778 66.574C19.4644 66.6673 19.5951 66.826 19.6698 67.05H19.7398C19.9078 66.8353 20.1318 66.6533 20.4118 66.504C20.7011 66.3547 21.0371 66.28 21.4198 66.28C21.7931 66.28 22.0731 66.35 22.2598 66.49C22.4184 66.6113 22.5818 66.8213 22.7498 67.12L22.1898 67.54C22.0871 67.4 21.9378 67.2973 21.7418 67.232C21.5458 67.1573 21.3218 67.12 21.0698 67.12C20.7898 67.12 20.5331 67.1853 20.2998 67.316C20.0664 67.4373 19.8798 67.6053 19.7398 67.82V73H18.4798V68.1ZM23.7082 65.44C23.7082 64.964 23.6429 64.614 23.5122 64.39C23.3816 64.1567 23.1202 64.04 22.7282 64.04H22.4482V63.76H23.7082C24.0536 63.76 24.3102 63.8067 24.4782 63.9C24.6556 63.984 24.7816 64.1427 24.8562 64.376C24.9309 64.6093 24.9682 64.964 24.9682 65.44V73H23.7082V65.44ZM28.3308 73.14C28.0322 73.14 27.7288 73.0793 27.4208 72.958C27.1128 72.8273 26.8468 72.6173 26.6228 72.328C26.4082 72.0387 26.3008 71.656 26.3008 71.18C26.3008 70.4707 26.6275 69.9667 27.2808 69.668C27.9435 69.3693 28.8068 69.22 29.8708 69.22H30.2908C30.2908 68.3053 30.1648 67.68 29.9128 67.344C29.6608 67.008 29.2968 66.84 28.8208 66.84C28.4008 66.84 28.0648 66.9287 27.8128 67.106C27.5608 67.2833 27.3835 67.5913 27.2808 68.03H26.6508C26.6508 67.7127 26.6695 67.4653 26.7068 67.288C26.7442 67.1013 26.8422 66.9287 27.0008 66.77C27.1688 66.602 27.4442 66.4807 27.8268 66.406C28.2188 66.322 28.6435 66.28 29.1008 66.28C29.8568 66.28 30.4542 66.4853 30.8928 66.896C31.3315 67.2973 31.5508 68.072 31.5508 69.22V73H30.8508L30.3608 72.37H30.2908C30.1228 72.5847 29.8755 72.7667 29.5488 72.916C29.2222 73.0653 28.8162 73.14 28.3308 73.14ZM28.9608 72.51C29.2688 72.51 29.5255 72.4353 29.7308 72.286C29.9362 72.1367 30.1228 71.9313 30.2908 71.67V69.78H29.8708C29.1802 69.78 28.6342 69.9107 28.2328 70.172C27.8315 70.424 27.6308 70.76 27.6308 71.18C27.6308 71.6093 27.7568 71.9407 28.0088 72.174C28.2702 72.398 28.5875 72.51 28.9608 72.51ZM33.1391 68.8H36.7091V69.78H33.1391V68.8ZM37.8816 65.398C37.6482 64.8567 37.4289 64.488 37.2236 64.292C37.0182 64.0867 36.7242 63.9653 36.3416 63.928V63.648C36.3882 63.648 36.4582 63.6433 36.5516 63.634C36.6356 63.6247 36.7242 63.62 36.8176 63.62C37.2842 63.62 37.7322 63.7413 38.1616 63.984C38.5909 64.2173 38.9549 64.6887 39.2536 65.398L41.6476 71.04L42.4736 69.122C42.8656 68.2167 43.6169 66.4293 44.7276 63.76H45.3996L41.3816 73.14H41.1296L37.8816 65.398ZM47.0826 73.14C46.784 73.14 46.4806 73.0793 46.1726 72.958C45.8646 72.8273 45.5986 72.6173 45.3746 72.328C45.16 72.0387 45.0526 71.656 45.0526 71.18C45.0526 70.4707 45.3793 69.9667 46.0326 69.668C46.6953 69.3693 47.5586 69.22 48.6226 69.22H49.0426C49.0426 68.3053 48.9166 67.68 48.6646 67.344C48.4126 67.008 48.0486 66.84 47.5726 66.84C47.1526 66.84 46.8166 66.9287 46.5646 67.106C46.3126 67.2833 46.1353 67.5913 46.0326 68.03H45.4026C45.4026 67.7127 45.4213 67.4653 45.4586 67.288C45.496 67.1013 45.594 66.9287 45.7526 66.77C45.9206 66.602 46.196 66.4807 46.5786 66.406C46.9706 66.322 47.3953 66.28 47.8526 66.28C48.6086 66.28 49.206 66.4853 49.6446 66.896C50.0833 67.2973 50.3026 68.072 50.3026 69.22V73H49.6026L49.1126 72.37H49.0426C48.8746 72.5847 48.6273 72.7667 48.3006 72.916C47.974 73.0653 47.568 73.14 47.0826 73.14ZM47.7126 72.51C48.0206 72.51 48.2773 72.4353 48.4826 72.286C48.688 72.1367 48.8746 71.9313 49.0426 71.67V69.78H48.6226C47.932 69.78 47.386 69.9107 46.9846 70.172C46.5833 70.424 46.3826 70.76 46.3826 71.18C46.3826 71.6093 46.5086 71.9407 46.7606 72.174C47.022 72.398 47.3393 72.51 47.7126 72.51ZM52.0309 65.44C52.0309 64.964 51.9655 64.614 51.8349 64.39C51.7042 64.1567 51.4429 64.04 51.0509 64.04H50.7709V63.76H52.0309C52.3762 63.76 52.6329 63.8067 52.8009 63.9C52.9782 63.984 53.1042 64.1427 53.1789 64.376C53.2535 64.6093 53.2909 64.964 53.2909 65.44V73H52.0309V65.44ZM57.6475 73.14C57.0128 73.14 56.4762 72.9907 56.0375 72.692C55.5988 72.384 55.2675 71.9733 55.0435 71.46C54.8195 70.9373 54.7075 70.354 54.7075 69.71C54.7075 69.0753 54.8195 68.4967 55.0435 67.974C55.2675 67.4513 55.5895 67.0407 56.0095 66.742C56.4388 66.434 56.9382 66.28 57.5075 66.28C58.4502 66.28 59.1502 66.546 59.6075 67.078C60.0742 67.6007 60.3075 68.3613 60.3075 69.36L60.2795 69.92H56.0375C56.0375 70.704 56.2055 71.3433 56.5415 71.838C56.8775 72.3327 57.3395 72.58 57.9275 72.58C58.3662 72.58 58.7348 72.4867 59.0335 72.3C59.3415 72.1133 59.6262 71.8333 59.8875 71.46L60.1675 71.67C59.8595 72.1833 59.5002 72.5567 59.0895 72.79C58.6788 73.0233 58.1982 73.14 57.6475 73.14ZM58.9775 69.36C58.9775 68.5387 58.8562 67.9133 58.6135 67.484C58.3708 67.0547 58.0022 66.84 57.5075 66.84C57.2275 66.84 56.9755 66.952 56.7515 67.176C56.5275 67.3907 56.3502 67.6893 56.2195 68.072C56.0982 68.4547 56.0375 68.884 56.0375 69.36H58.9775ZM61.7534 68.1C61.7534 67.624 61.6881 67.274 61.5574 67.05C61.4268 66.8167 61.1654 66.7 60.7734 66.7H60.6334V66.42H61.7534C62.1081 66.42 62.3741 66.4713 62.5514 66.574C62.7381 66.6673 62.8688 66.826 62.9434 67.05H63.0134C63.1814 66.8353 63.4054 66.6533 63.6854 66.504C63.9748 66.3547 64.3108 66.28 64.6934 66.28C65.0668 66.28 65.3468 66.35 65.5334 66.49C65.6921 66.6113 65.8554 66.8213 66.0234 67.12L65.4634 67.54C65.3608 67.4 65.2114 67.2973 65.0154 67.232C64.8194 67.1573 64.5954 67.12 64.3434 67.12C64.0634 67.12 63.8068 67.1853 63.5734 67.316C63.3401 67.4373 63.1534 67.6053 63.0134 67.82V73H61.7534V68.1ZM67.6679 65.58C67.4532 65.58 67.2666 65.4913 67.1079 65.314C66.9586 65.1367 66.8839 64.9267 66.8839 64.684C66.8839 64.488 66.9399 64.334 67.0519 64.222C67.1732 64.11 67.3319 64.054 67.5279 64.054C67.7426 64.054 67.9246 64.1427 68.0739 64.32C68.2326 64.4973 68.3119 64.7073 68.3119 64.95C68.3119 65.146 68.2512 65.3 68.1299 65.412C68.0179 65.524 67.8639 65.58 67.6679 65.58ZM67.1359 68.1C67.1359 67.624 67.0706 67.274 66.9399 67.05C66.8092 66.8167 66.5479 66.7 66.1559 66.7H65.8759V66.42H67.1359C67.4812 66.42 67.7379 66.4667 67.9059 66.56C68.0832 66.644 68.2092 66.8027 68.2839 67.036C68.3586 67.2693 68.3959 67.624 68.3959 68.1V73H67.1359V68.1ZM72.6532 73.14C72.0185 73.14 71.4819 72.9907 71.0432 72.692C70.6045 72.384 70.2732 71.9733 70.0492 71.46C69.8252 70.9373 69.7132 70.354 69.7132 69.71C69.7132 69.0753 69.8252 68.4967 70.0492 67.974C70.2732 67.4513 70.5952 67.0407 71.0152 66.742C71.4445 66.434 71.9439 66.28 72.5132 66.28C73.4559 66.28 74.1559 66.546 74.6132 67.078C75.0799 67.6007 75.3132 68.3613 75.3132 69.36L75.2852 69.92H71.0432C71.0432 70.704 71.2112 71.3433 71.5472 71.838C71.8832 72.3327 72.3452 72.58 72.9332 72.58C73.3719 72.58 73.7405 72.4867 74.0392 72.3C74.3472 72.1133 74.6319 71.8333 74.8932 71.46L75.1732 71.67C74.8652 72.1833 74.5059 72.5567 74.0952 72.79C73.6845 73.0233 73.2039 73.14 72.6532 73.14ZM73.9832 69.36C73.9832 68.5387 73.8619 67.9133 73.6192 67.484C73.3765 67.0547 73.0079 66.84 72.5132 66.84C72.2332 66.84 71.9812 66.952 71.7572 67.176C71.5332 67.3907 71.3559 67.6893 71.2252 68.072C71.1039 68.4547 71.0432 68.884 71.0432 69.36H73.9832ZM81.1831 64.32C80.0165 64.32 79.4331 64.8567 79.4331 65.93H79.1531V64.88C79.1531 64.1333 79.5498 63.76 80.3431 63.76H86.8531V64.32H83.7031V73H82.4431V64.32H81.1831ZM89.4323 73.14C88.7323 73.14 88.1583 72.9533 87.7103 72.58C87.2717 72.2067 87.0523 71.5533 87.0523 70.62V68.1C87.0523 67.624 86.987 67.274 86.8563 67.05C86.7257 66.8167 86.4643 66.7 86.0723 66.7H85.9323V66.42H87.0523C87.3977 66.42 87.6543 66.4667 87.8223 66.56C87.9997 66.644 88.1257 66.8027 88.2003 67.036C88.275 67.2693 88.3123 67.624 88.3123 68.1V70.62C88.3123 71.2733 88.457 71.754 88.7463 72.062C89.045 72.3607 89.4137 72.51 89.8523 72.51C90.347 72.51 90.8137 72.2627 91.2523 71.768V66.42H92.5123V73H91.8123L91.3223 72.44H91.2523C91.0563 72.636 90.7997 72.804 90.4823 72.944C90.1743 73.0747 89.8243 73.14 89.4323 73.14ZM94.3625 68.1C94.3625 67.624 94.2972 67.274 94.1665 67.05C94.0358 66.8167 93.7745 66.7 93.3825 66.7H93.2425V66.42H94.3625C94.7172 66.42 94.9832 66.4713 95.1605 66.574C95.3472 66.6673 95.4778 66.826 95.5525 67.05H95.6225C95.7905 66.8353 96.0145 66.6533 96.2945 66.504C96.5838 66.3547 96.9198 66.28 97.3025 66.28C97.6758 66.28 97.9558 66.35 98.1425 66.49C98.3012 66.6113 98.4645 66.8213 98.6325 67.12L98.0725 67.54C97.9698 67.4 97.8205 67.2973 97.6245 67.232C97.4285 67.1573 97.2045 67.12 96.9525 67.12C96.6725 67.12 96.4158 67.1853 96.1825 67.316C95.9492 67.4373 95.7625 67.6053 95.6225 67.82V73H94.3625V68.1ZM101.974 73.14C101.339 73.14 100.803 72.9907 100.364 72.692C99.9252 72.384 99.5939 71.9733 99.3699 71.46C99.1459 70.9373 99.0339 70.354 99.0339 69.71C99.0339 69.0753 99.1459 68.4967 99.3699 67.974C99.5939 67.4513 99.9159 67.0407 100.336 66.742C100.765 66.434 101.265 66.28 101.834 66.28C102.777 66.28 103.477 66.546 103.934 67.078C104.401 67.6007 104.634 68.3613 104.634 69.36L104.606 69.92H100.364C100.364 70.704 100.532 71.3433 100.868 71.838C101.204 72.3327 101.666 72.58 102.254 72.58C102.693 72.58 103.061 72.4867 103.36 72.3C103.668 72.1133 103.953 71.8333 104.214 71.46L104.494 71.67C104.186 72.1833 103.827 72.5567 103.416 72.79C103.005 73.0233 102.525 73.14 101.974 73.14ZM103.304 69.36C103.304 68.5387 103.183 67.9133 102.94 67.484C102.697 67.0547 102.329 66.84 101.834 66.84C101.554 66.84 101.302 66.952 101.078 67.176C100.854 67.3907 100.677 67.6893 100.546 68.072C100.425 68.4547 100.364 68.884 100.364 69.36H103.304ZM106.178 68.1C106.178 67.624 106.113 67.274 105.982 67.05C105.851 66.8167 105.59 66.7 105.198 66.7H104.918V66.42H106.178C106.523 66.42 106.785 66.4667 106.962 66.56C107.149 66.6533 107.284 66.7933 107.368 66.98H107.438C107.634 66.784 107.886 66.6207 108.194 66.49C108.511 66.35 108.866 66.28 109.258 66.28C109.958 66.28 110.527 66.4667 110.966 66.84C111.414 67.2133 111.638 67.8667 111.638 68.8V73H110.378V68.8C110.378 68.1467 110.229 67.6707 109.93 67.372C109.641 67.064 109.277 66.91 108.838 66.91C108.343 66.91 107.877 67.1573 107.438 67.652V73H106.178V68.1ZM115.865 73.14C115.23 73.14 114.694 72.9907 114.255 72.692C113.816 72.384 113.485 71.9733 113.261 71.46C113.037 70.9373 112.925 70.354 112.925 69.71C112.925 69.0753 113.037 68.4967 113.261 67.974C113.485 67.4513 113.807 67.0407 114.227 66.742C114.656 66.434 115.156 66.28 115.725 66.28C116.668 66.28 117.368 66.546 117.825 67.078C118.292 67.6007 118.525 68.3613 118.525 69.36L118.497 69.92H114.255C114.255 70.704 114.423 71.3433 114.759 71.838C115.095 72.3327 115.557 72.58 116.145 72.58C116.584 72.58 116.952 72.4867 117.251 72.3C117.559 72.1133 117.844 71.8333 118.105 71.46L118.385 71.67C118.077 72.1833 117.718 72.5567 117.307 72.79C116.896 73.0233 116.416 73.14 115.865 73.14ZM117.195 69.36C117.195 68.5387 117.074 67.9133 116.831 67.484C116.588 67.0547 116.22 66.84 115.725 66.84C115.445 66.84 115.193 66.952 114.969 67.176C114.745 67.3907 114.568 67.6893 114.437 68.072C114.316 68.4547 114.255 68.884 114.255 69.36H117.195Z" fill="#3D358A"/>
<path d="M36.6885 80.784C36.6885 80.464 36.8325 80.4 37.1125 80.4H37.6165V80.152H35.3445V80.4H35.8885C36.0725 80.4 36.2805 80.44 36.2805 80.784V85.352C36.2805 85.608 36.1445 85.744 35.8885 85.744H35.3445V85.992H37.6165V85.744H37.1125C36.8085 85.744 36.6885 85.632 36.6885 85.352V80.784ZM38.5126 85.464C38.5126 85.72 38.3606 85.744 38.1686 85.744H37.9286V85.992H39.4806V85.744H39.1686C39.0326 85.744 38.9206 85.672 38.9206 85.464V83.328C39.0806 82.8 39.6806 82.456 40.1286 82.456C40.7046 82.456 40.9286 82.88 40.9286 83.288V85.44C40.9286 85.632 40.7926 85.744 40.6166 85.744H40.3286V85.992H41.9526V85.744H41.6326C41.4806 85.744 41.3366 85.648 41.3366 85.44V83.288C41.3366 82.784 41.1286 82.208 40.3126 82.208C39.8486 82.208 39.4726 82.336 39.1766 82.608L38.9206 82.872V82.208C38.5366 82.432 38.1926 82.552 37.9046 82.552V82.8C38.2086 82.792 38.5126 82.784 38.5126 83.016V85.464ZM43.3782 82.536H44.4902V82.288H43.3782V80.592H43.1542C43.1542 81.792 42.9862 82.288 42.2422 82.288V82.536H42.9702V85.008C42.9702 85.496 43.1062 86.048 43.7542 86.048C44.2342 86.048 44.4502 85.848 44.8422 85.432L44.6662 85.264C44.3462 85.624 44.0742 85.8 43.8662 85.8C43.4182 85.8 43.3782 85.488 43.3782 85.008V82.536ZM48.5888 83.992C48.5888 82.864 47.8608 82.112 46.9808 82.112C46.1408 82.112 45.3088 82.92 45.3088 84.176C45.3088 85.056 45.8288 86.144 47.0608 86.144C47.7088 86.144 48.0448 85.928 48.6768 85.12L48.4688 84.976C48.1008 85.48 47.7568 85.896 47.1408 85.896C46.3328 85.896 45.7168 85.064 45.7168 84.176V83.992H48.5888ZM45.7328 83.744C45.8528 82.928 46.3728 82.36 46.9808 82.36C47.3328 82.36 47.6048 82.472 47.8128 82.696C48.0288 82.92 48.1408 83.272 48.1728 83.744H45.7328ZM49.678 85.416C49.678 85.744 49.518 85.744 49.054 85.744V85.992H50.678V85.744H50.382C50.15 85.744 50.086 85.672 50.086 85.416V83.504C50.342 82.928 50.686 82.6 51.046 82.6C51.19 82.6 51.294 82.64 51.374 82.744C51.454 82.848 51.558 82.904 51.694 82.904C51.854 82.904 51.966 82.816 51.966 82.664C51.966 82.264 51.622 82.208 51.35 82.208C50.678 82.208 50.23 82.792 50.086 82.992V82.208C49.686 82.4 49.334 82.504 49.038 82.504V82.752C49.558 82.752 49.678 82.8 49.678 82.968V85.416ZM53.0458 85.456C53.0458 85.664 52.8698 85.744 52.6938 85.744H52.2138V85.992H54.2618V85.744H53.7818C53.6298 85.744 53.4458 85.68 53.4458 85.456V82.208C53.0618 82.416 52.7258 82.52 52.4298 82.52V82.768C52.7098 82.76 53.0458 82.76 53.0458 82.976V85.456ZM53.2538 80.088C53.0378 80.088 52.9098 80.232 52.9098 80.44C52.9098 80.624 53.0218 80.808 53.2538 80.808C53.4458 80.808 53.6298 80.648 53.6298 80.44C53.6298 80.232 53.4618 80.088 53.2538 80.088ZM58.4241 84.168C58.4241 82.768 57.5681 82.088 56.6561 82.088C55.9361 82.088 54.8401 82.632 54.8401 84.168C54.8401 85.024 55.3201 86.16 56.6561 86.16C57.9201 86.16 58.4241 85.056 58.4241 84.168ZM57.9681 84.168C57.9681 84.84 57.7041 85.904 56.6561 85.904C55.5041 85.904 55.2881 84.752 55.2881 84.168C55.2881 83.544 55.4081 83.08 55.6641 82.792C55.9361 82.496 56.2641 82.344 56.6561 82.344C57.0401 82.344 57.3601 82.496 57.6081 82.784C57.8481 83.072 57.9681 83.536 57.9681 84.168ZM59.5373 85.416C59.5373 85.744 59.3773 85.744 58.9133 85.744V85.992H60.5373V85.744H60.2413C60.0093 85.744 59.9453 85.672 59.9453 85.416V83.504C60.2013 82.928 60.5453 82.6 60.9053 82.6C61.0493 82.6 61.1533 82.64 61.2333 82.744C61.3133 82.848 61.4173 82.904 61.5533 82.904C61.7133 82.904 61.8253 82.816 61.8253 82.664C61.8253 82.264 61.4813 82.208 61.2093 82.208C60.5373 82.208 60.0893 82.792 59.9453 82.992V82.208C59.5453 82.4 59.1933 82.504 58.8973 82.504V82.752C59.4173 82.752 59.5373 82.8 59.5373 82.968V85.416ZM68.257 81.704L67.785 80.296H67.713L67.489 80.48C66.977 80.208 66.545 80.072 66.185 80.072C65.289 80.072 64.473 80.72 64.473 81.648C64.473 82.024 64.585 82.352 64.809 82.64C65.057 82.96 65.577 83.184 66.361 83.312C67.753 83.52 68.009 84.16 68.009 84.528C68.009 85.232 67.353 85.824 66.553 85.824C65.657 85.824 64.937 85.176 64.377 84.464H64.177L64.737 85.848H64.809L65.041 85.616C65.649 85.92 66.153 86.072 66.553 86.072C67.633 86.072 68.417 85.312 68.417 84.344C68.417 84.024 68.265 83.72 67.953 83.448C67.649 83.176 67.121 82.976 66.361 82.872C65.673 82.744 64.881 82.52 64.881 81.512C64.881 80.88 65.401 80.32 66.185 80.32C67.161 80.32 67.649 80.992 68.049 81.704H68.257ZM70.1126 82.536H71.2246V82.288H70.1126V80.592H69.8886C69.8886 81.792 69.7206 82.288 68.9766 82.288V82.536H69.7046V85.008C69.7046 85.496 69.8406 86.048 70.4886 86.048C70.9686 86.048 71.1846 85.848 71.5766 85.432L71.4006 85.264C71.0806 85.624 70.8086 85.8 70.6006 85.8C70.1526 85.8 70.1126 85.488 70.1126 85.008V82.536ZM73.7792 85.736L73.6672 85.976C73.5232 86.264 73.3152 86.4 73.0592 86.4C72.9952 86.4 72.9232 86.368 72.8272 86.304C72.7232 86.232 72.6192 86.192 72.5312 86.192C72.4832 86.192 72.2832 86.216 72.2832 86.456C72.2832 86.736 72.5952 86.856 72.8512 86.856C73.2352 86.856 73.6432 86.576 73.9472 85.912L75.3952 82.8C75.4992 82.536 75.7792 82.512 75.8992 82.512H76.1952V82.264H74.6352V82.512H74.9952C75.1312 82.512 75.2032 82.56 75.2032 82.656C75.2032 82.696 75.1872 82.752 75.1632 82.808L73.9952 85.28L72.8672 82.792C72.8352 82.728 72.8192 82.672 72.8192 82.624C72.8192 82.552 72.8672 82.512 72.9712 82.512H73.3232V82.264H71.8192V82.512C72.1792 82.512 72.2992 82.512 72.4432 82.832L73.7792 85.736ZM77.3966 85.392C77.3966 85.536 77.3886 85.744 77.0686 85.744H76.5966V85.992H78.6126V85.744H78.0846C77.8446 85.744 77.8046 85.576 77.8046 85.392V80.096C77.4206 80.312 77.0766 80.424 76.7886 80.424V80.672C77.1166 80.672 77.3086 80.688 77.3486 80.728C77.3886 80.76 77.3966 80.816 77.3966 80.896V85.392ZM79.9677 85.456C79.9677 85.664 79.7917 85.744 79.6157 85.744H79.1357V85.992H81.1837V85.744H80.7037C80.5517 85.744 80.3677 85.68 80.3677 85.456V82.208C79.9837 82.416 79.6477 82.52 79.3517 82.52V82.768C79.6317 82.76 79.9677 82.76 79.9677 82.976V85.456ZM80.1757 80.088C79.9597 80.088 79.8317 80.232 79.8317 80.44C79.8317 80.624 79.9437 80.808 80.1757 80.808C80.3677 80.808 80.5517 80.648 80.5517 80.44C80.5517 80.232 80.3837 80.088 80.1757 80.088ZM81.714 84.888L82.05 86.016H82.178L82.378 85.8C82.73 86.024 83.066 86.136 83.378 86.136C84.186 86.136 84.61 85.584 84.61 85.088C84.61 84.248 84.082 84.032 83.322 83.832C82.546 83.664 82.25 83.504 82.25 83.088C82.25 82.72 82.522 82.384 83.034 82.384C83.722 82.384 84.09 82.752 84.394 83.24H84.546L84.138 82.184H84.058L83.89 82.368C83.626 82.216 83.338 82.136 83.034 82.136C82.29 82.136 81.882 82.688 81.882 83.088C81.882 83.344 81.962 83.568 82.114 83.728C82.282 83.928 82.69 84.088 83.322 84.24C83.874 84.392 84.242 84.6 84.242 85.152C84.242 85.616 83.826 85.888 83.378 85.888C83.106 85.888 82.818 85.808 82.546 85.64C82.274 85.496 82.05 85.232 81.85 84.848L81.714 84.888ZM86.2688 82.536H87.3808V82.288H86.2688V80.592H86.0448C86.0448 81.792 85.8768 82.288 85.1328 82.288V82.536H85.8608V85.008C85.8608 85.496 85.9968 86.048 86.6448 86.048C87.1248 86.048 87.3408 85.848 87.7328 85.432L87.5568 85.264C87.2368 85.624 86.9648 85.8 86.7568 85.8C86.3088 85.8 86.2688 85.488 86.2688 85.008V82.536Z" fill="url(#paint0_linear_62_44)"/>
<path d="M37.6165 80.4V80.42H37.6365V80.4H37.6165ZM37.6165 80.152H37.6365V80.132H37.6165V80.152ZM35.3445 80.152V80.132H35.3245V80.152H35.3445ZM35.3445 80.4H35.3245V80.42H35.3445V80.4ZM35.3445 85.744V85.724H35.3245V85.744H35.3445ZM35.3445 85.992H35.3245V86.012H35.3445V85.992ZM37.6165 85.992V86.012H37.6365V85.992H37.6165ZM37.6165 85.744H37.6365V85.724H37.6165V85.744ZM36.7085 80.784C36.7085 80.6263 36.7441 80.5381 36.8079 80.4877C36.8731 80.4363 36.9727 80.42 37.1125 80.42V80.38C36.9723 80.38 36.86 80.3957 36.7831 80.4563C36.705 80.5179 36.6685 80.6217 36.6685 80.784H36.7085ZM37.1125 80.42H37.6165V80.38H37.1125V80.42ZM37.6365 80.4V80.152H37.5965V80.4H37.6365ZM37.6165 80.132H35.3445V80.172H37.6165V80.132ZM35.3245 80.152V80.4H35.3645V80.152H35.3245ZM35.3445 80.42H35.8885V80.38H35.3445V80.42ZM35.8885 80.42C35.98 80.42 36.0724 80.4302 36.142 80.4793C36.21 80.5274 36.2605 80.6162 36.2605 80.784H36.3005C36.3005 80.6078 36.247 80.5046 36.1651 80.4467C36.0846 80.3898 35.9811 80.38 35.8885 80.38V80.42ZM36.2605 80.784V85.352H36.3005V80.784H36.2605ZM36.2605 85.352C36.2605 85.4766 36.2275 85.5688 36.1664 85.6299C36.1053 85.6909 36.0131 85.724 35.8885 85.724V85.764C36.0199 85.764 36.1238 85.7291 36.1947 85.6581C36.2656 85.5872 36.3005 85.4834 36.3005 85.352H36.2605ZM35.8885 85.724H35.3445V85.764H35.8885V85.724ZM35.3245 85.744V85.992H35.3645V85.744H35.3245ZM35.3445 86.012H37.6165V85.972H35.3445V86.012ZM37.6365 85.992V85.744H37.5965V85.992H37.6365ZM37.6165 85.724H37.1125V85.764H37.6165V85.724ZM37.1125 85.724C36.9622 85.724 36.8625 85.6961 36.8001 85.6383C36.7381 85.5809 36.7085 85.4897 36.7085 85.352H36.6685C36.6685 85.4943 36.6989 85.5991 36.7729 85.6677C36.8465 85.7359 36.9589 85.764 37.1125 85.764V85.724ZM36.7085 85.352V80.784H36.6685V85.352H36.7085ZM37.9286 85.744V85.724H37.9086V85.744H37.9286ZM37.9286 85.992H37.9086V86.012H37.9286V85.992ZM39.4806 85.992V86.012H39.5006V85.992H39.4806ZM39.4806 85.744H39.5006V85.724H39.4806V85.744ZM38.9206 83.328L38.9006 83.3219V83.328H38.9206ZM40.3286 85.744V85.724H40.3086V85.744H40.3286ZM40.3286 85.992H40.3086V86.012H40.3286V85.992ZM41.9526 85.992V86.012H41.9726V85.992H41.9526ZM41.9526 85.744H41.9726V85.724H41.9526V85.744ZM39.1766 82.608L39.163 82.5932L39.1622 82.5941L39.1766 82.608ZM38.9206 82.872H38.9006V82.9214L38.935 82.8859L38.9206 82.872ZM38.9206 82.208H38.9406V82.1732L38.9105 82.1907L38.9206 82.208ZM37.9046 82.552V82.532H37.8846V82.552H37.9046ZM37.9046 82.8H37.8846V82.8205L37.9051 82.82L37.9046 82.8ZM38.4926 85.464C38.4926 85.5879 38.4561 85.6499 38.4021 85.6829C38.3456 85.7176 38.2651 85.724 38.1686 85.724V85.764C38.2641 85.764 38.3556 85.7584 38.423 85.7171C38.4931 85.6741 38.5326 85.5961 38.5326 85.464H38.4926ZM38.1686 85.724H37.9286V85.764H38.1686V85.724ZM37.9086 85.744V85.992H37.9486V85.744H37.9086ZM37.9286 86.012H39.4806V85.972H37.9286V86.012ZM39.5006 85.992V85.744H39.4606V85.992H39.5006ZM39.4806 85.724H39.1686V85.764H39.4806V85.724ZM39.1686 85.724C39.1039 85.724 39.0477 85.7069 39.0076 85.6677C38.9676 85.6286 38.9406 85.5645 38.9406 85.464H38.9006C38.9006 85.5715 38.9296 85.6474 38.9796 85.6963C39.0295 85.7451 39.0973 85.764 39.1686 85.764V85.724ZM38.9406 85.464V83.328H38.9006V85.464H38.9406ZM38.9397 83.3338C39.0181 83.0753 39.2046 82.8607 39.4278 82.7106C39.6511 82.5604 39.9092 82.476 40.1286 82.476V82.436C39.8999 82.436 39.6341 82.5236 39.4054 82.6774C39.1766 82.8313 38.9831 83.0527 38.9015 83.3222L38.9397 83.3338ZM40.1286 82.476C40.4111 82.476 40.6052 82.5797 40.7291 82.7316C40.8535 82.8842 40.9086 83.0873 40.9086 83.288H40.9486C40.9486 83.0807 40.8917 82.8678 40.7601 82.7064C40.628 82.5443 40.422 82.436 40.1286 82.436V82.476ZM40.9086 83.288V85.44H40.9486V83.288H40.9086ZM40.9086 85.44C40.9086 85.531 40.8765 85.6015 40.825 85.6493C40.7733 85.6974 40.7004 85.724 40.6166 85.724V85.764C40.7088 85.764 40.7919 85.7346 40.8522 85.6787C40.9127 85.6225 40.9486 85.541 40.9486 85.44H40.9086ZM40.6166 85.724H40.3286V85.764H40.6166V85.724ZM40.3086 85.744V85.992H40.3486V85.744H40.3086ZM40.3286 86.012H41.9526V85.972H40.3286V86.012ZM41.9726 85.992V85.744H41.9326V85.992H41.9726ZM41.9526 85.724H41.6326V85.764H41.9526V85.724ZM41.6326 85.724C41.5606 85.724 41.4917 85.7013 41.441 85.6552C41.3907 85.6094 41.3566 85.5391 41.3566 85.44H41.3166C41.3166 85.5489 41.3545 85.6306 41.4141 85.6848C41.4735 85.7387 41.5525 85.764 41.6326 85.764V85.724ZM41.3566 85.44V83.288H41.3166V85.44H41.3566ZM41.3566 83.288C41.3566 83.0338 41.3042 82.7589 41.1466 82.5471C40.9883 82.3342 40.7259 82.188 40.3126 82.188V82.228C40.7153 82.228 40.9649 82.3698 41.1145 82.5709C41.265 82.7731 41.3166 83.0382 41.3166 83.288H41.3566ZM40.3126 82.188C39.8446 82.188 39.4635 82.3172 39.1631 82.5933L39.1901 82.6227C39.4817 82.3548 39.8525 82.228 40.3126 82.228V82.188ZM39.1622 82.5941L38.9062 82.8581L38.935 82.8859L39.191 82.6219L39.1622 82.5941ZM38.9406 82.872V82.208H38.9006V82.872H38.9406ZM38.9105 82.1907C38.5278 82.4139 38.1875 82.532 37.9046 82.532V82.572C38.1977 82.572 38.5453 82.4501 38.9307 82.2253L38.9105 82.1907ZM37.8846 82.552V82.8H37.9246V82.552H37.8846ZM37.9051 82.82C38.058 82.816 38.2071 82.8122 38.3181 82.8375C38.3734 82.8501 38.417 82.8695 38.4465 82.8977C38.4754 82.9253 38.4926 82.9629 38.4926 83.016H38.5326C38.5326 82.9531 38.5117 82.9047 38.4742 82.8688C38.4372 82.8335 38.3858 82.8119 38.327 82.7985C38.21 82.7718 38.0552 82.776 37.9041 82.78L37.9051 82.82ZM38.4926 83.016V85.464H38.5326V83.016H38.4926ZM43.3782 82.536V82.516H43.3582V82.536H43.3782ZM44.4902 82.536V82.556H44.5102V82.536H44.4902ZM44.4902 82.288H44.5102V82.268H44.4902V82.288ZM43.3782 82.288H43.3582V82.308H43.3782V82.288ZM43.3782 80.592H43.3982V80.572H43.3782V80.592ZM43.1542 80.592V80.572H43.1342V80.592H43.1542ZM42.2422 82.288V82.268H42.2222V82.288H42.2422ZM42.2422 82.536H42.2222V82.556H42.2422V82.536ZM42.9702 82.536H42.9902V82.516H42.9702V82.536ZM44.8422 85.432L44.8568 85.4457L44.8704 85.4313L44.856 85.4175L44.8422 85.432ZM44.6662 85.264L44.68 85.2495L44.665 85.2352L44.6513 85.2507L44.6662 85.264ZM43.3782 82.556H44.4902V82.516H43.3782V82.556ZM44.5102 82.536V82.288H44.4702V82.536H44.5102ZM44.4902 82.268H43.3782V82.308H44.4902V82.268ZM43.3982 82.288V80.592H43.3582V82.288H43.3982ZM43.3782 80.572H43.1542V80.612H43.3782V80.572ZM43.1342 80.592C43.1342 81.1923 43.092 81.6119 42.9593 81.8812C42.8933 82.015 42.8053 82.1112 42.6891 82.1742C42.5725 82.2373 42.4261 82.268 42.2422 82.268V82.308C42.4303 82.308 42.5839 82.2767 42.7081 82.2093C42.8327 82.1418 42.9261 82.039 42.9952 81.8988C43.1325 81.6201 43.1742 81.1917 43.1742 80.592H43.1342ZM42.2222 82.288V82.536H42.2622V82.288H42.2222ZM42.2422 82.556H42.9702V82.516H42.2422V82.556ZM42.9502 82.536V85.008H42.9902V82.536H42.9502ZM42.9502 85.008C42.9502 85.2532 42.9843 85.5174 43.1019 85.721C43.2205 85.9263 43.4232 86.068 43.7542 86.068V86.028C43.4372 86.028 43.2479 85.8937 43.1365 85.701C43.0242 85.5066 42.9902 85.2508 42.9902 85.008H42.9502ZM43.7542 86.068C43.9975 86.068 44.1753 86.0172 44.3418 85.913C44.5074 85.8094 44.6611 85.6534 44.8568 85.4457L44.8277 85.4183C44.6314 85.6266 44.4811 85.7786 44.3206 85.879C44.1612 85.9788 43.9909 86.028 43.7542 86.028V86.068ZM44.856 85.4175L44.68 85.2495L44.6524 85.2785L44.8284 85.4465L44.856 85.4175ZM44.6513 85.2507C44.492 85.4299 44.3452 85.5626 44.2132 85.6503C44.0809 85.7382 43.9647 85.78 43.8662 85.78V85.82C43.9757 85.82 44.0996 85.7738 44.2353 85.6837C44.3712 85.5934 44.5205 85.4581 44.6812 85.2773L44.6513 85.2507ZM43.8662 85.78C43.7564 85.78 43.6735 85.7609 43.6106 85.7262C43.548 85.6918 43.5037 85.6411 43.4723 85.5754C43.4085 85.4421 43.3982 85.2488 43.3982 85.008H43.3582C43.3582 85.2472 43.3679 85.4499 43.4362 85.5926C43.4707 85.6649 43.5204 85.7222 43.5913 85.7613C43.6619 85.8001 43.752 85.82 43.8662 85.82V85.78ZM43.3982 85.008V82.536H43.3582V85.008H43.3982ZM48.5888 83.992V84.012H48.6088V83.992H48.5888ZM48.6768 85.12L48.6926 85.1323L48.7057 85.1156L48.6882 85.1036L48.6768 85.12ZM48.4688 84.976L48.4802 84.9596L48.4642 84.9485L48.4527 84.9642L48.4688 84.976ZM45.7168 83.992V83.972H45.6968V83.992H45.7168ZM45.7328 83.744L45.7131 83.7411L45.7097 83.764H45.7328V83.744ZM47.8128 82.696L47.7982 82.7096L47.7984 82.7099L47.8128 82.696ZM48.1728 83.744V83.764H48.1942L48.1928 83.7426L48.1728 83.744ZM48.6088 83.992C48.6088 82.8553 47.8741 82.092 46.9808 82.092V82.132C47.8476 82.132 48.5688 82.8727 48.5688 83.992H48.6088ZM46.9808 82.092C46.1273 82.092 45.2888 82.9116 45.2888 84.176H45.3288C45.3288 82.9284 46.1544 82.132 46.9808 82.132V82.092ZM45.2888 84.176C45.2888 84.6195 45.4198 85.1159 45.7068 85.5019C45.9943 85.8886 46.4381 86.164 47.0608 86.164V86.124C46.4516 86.124 46.0194 85.8554 45.7389 85.4781C45.4579 85.1001 45.3288 84.6125 45.3288 84.176H45.2888ZM47.0608 86.164C47.3875 86.164 47.6375 86.1095 47.8856 85.9519C48.1326 85.7949 48.3764 85.5366 48.6926 85.1323L48.6611 85.1077C48.3453 85.5114 48.105 85.7651 47.8641 85.9181C47.6242 86.0705 47.3822 86.124 47.0608 86.124V86.164ZM48.6882 85.1036L48.4802 84.9596L48.4575 84.9924L48.6655 85.1364L48.6882 85.1036ZM48.4527 84.9642C48.0842 85.4689 47.7456 85.876 47.1408 85.876V85.916C47.7681 85.916 48.1175 85.4911 48.485 84.9878L48.4527 84.9642ZM47.1408 85.876C46.7442 85.876 46.3935 85.6718 46.1415 85.3565C45.8894 85.0411 45.7368 84.6156 45.7368 84.176H45.6968C45.6968 84.6244 45.8523 85.0589 46.1102 85.3815C46.3682 85.7042 46.7295 85.916 47.1408 85.916V85.876ZM45.7368 84.176V83.992H45.6968V84.176H45.7368ZM45.7168 84.012H48.5888V83.972H45.7168V84.012ZM45.7526 83.7469C45.8719 82.9362 46.3868 82.38 46.9808 82.38V82.34C46.3589 82.34 45.8338 82.9198 45.7131 83.7411L45.7526 83.7469ZM46.9808 82.38C47.3281 82.38 47.5945 82.4902 47.7982 82.7096L47.8275 82.6824C47.6152 82.4538 47.3376 82.34 46.9808 82.34V82.38ZM47.7984 82.7099C48.0096 82.9288 48.121 83.2751 48.1529 83.7454L48.1928 83.7426C48.1607 83.2689 48.0481 82.9112 47.8272 82.6821L47.7984 82.7099ZM48.1728 83.724H45.7328V83.764H48.1728V83.724ZM49.054 85.744V85.724H49.034V85.744H49.054ZM49.054 85.992H49.034V86.012H49.054V85.992ZM50.678 85.992V86.012H50.698V85.992H50.678ZM50.678 85.744H50.698V85.724H50.678V85.744ZM50.086 83.504L50.066 83.4951V83.504H50.086ZM51.374 82.744L51.3581 82.7562L51.374 82.744ZM50.086 82.992H50.066V83.054L50.1022 83.0037L50.086 82.992ZM50.086 82.208H50.106V82.1762L50.0773 82.19L50.086 82.208ZM49.038 82.504V82.484H49.018V82.504H49.038ZM49.038 82.752H49.018V82.772H49.038V82.752ZM49.658 85.416C49.658 85.4968 49.648 85.5548 49.6277 85.5969C49.6078 85.6382 49.5772 85.6657 49.5322 85.6845C49.4864 85.7037 49.4256 85.7138 49.3459 85.7189C49.2665 85.724 49.1702 85.724 49.054 85.724V85.764C49.1697 85.764 49.2675 85.764 49.3485 85.7588C49.4293 85.7537 49.4955 85.7433 49.5477 85.7215C49.6007 85.6993 49.6391 85.6653 49.6637 85.6143C49.6879 85.5642 49.698 85.4992 49.698 85.416H49.658ZM49.034 85.744V85.992H49.074V85.744H49.034ZM49.054 86.012H50.678V85.972H49.054V86.012ZM50.698 85.992V85.744H50.658V85.992H50.698ZM50.678 85.724H50.382V85.764H50.678V85.724ZM50.382 85.724C50.2666 85.724 50.2006 85.7057 50.1618 85.6626C50.1224 85.6188 50.106 85.544 50.106 85.416H50.066C50.066 85.544 50.0816 85.6332 50.1321 85.6894C50.1833 85.7463 50.2653 85.764 50.382 85.764V85.724ZM50.106 85.416V83.504H50.066V85.416H50.106ZM50.1042 83.5121C50.2316 83.2257 50.3802 83.0022 50.5407 82.8505C50.7011 82.699 50.8724 82.62 51.046 82.62V82.58C50.8595 82.58 50.6788 82.665 50.5132 82.8215C50.3477 82.9778 50.1964 83.2063 50.0677 83.4959L50.1042 83.5121ZM51.046 82.62C51.1855 82.62 51.2828 82.6583 51.3581 82.7562L51.3898 82.7318C51.3051 82.6217 51.1945 82.58 51.046 82.58V82.62ZM51.3581 82.7562C51.4417 82.8648 51.5514 82.924 51.694 82.924V82.884C51.5646 82.884 51.4663 82.8312 51.3898 82.7318L51.3581 82.7562ZM51.694 82.924C51.7775 82.924 51.8505 82.901 51.903 82.8562C51.9558 82.8111 51.986 82.7453 51.986 82.664H51.946C51.946 82.7347 51.9201 82.7889 51.877 82.8258C51.8335 82.863 51.7705 82.884 51.694 82.884V82.924ZM51.986 82.664C51.986 82.5611 51.9638 82.4789 51.9252 82.4138C51.8865 82.3487 51.8321 82.3018 51.7694 82.2684C51.6448 82.2019 51.4866 82.188 51.35 82.188V82.228C51.4854 82.228 51.6351 82.2421 51.7506 82.3036C51.8079 82.3342 51.8564 82.3763 51.8908 82.4342C51.9251 82.4921 51.946 82.5669 51.946 82.664H51.986ZM51.35 82.188C51.0079 82.188 50.7236 82.3367 50.5075 82.5094C50.2913 82.6821 50.1421 82.8798 50.0697 82.9803L50.1022 83.0037C50.1739 82.9042 50.3206 82.7099 50.5325 82.5406C50.7443 82.3713 51.02 82.228 51.35 82.228V82.188ZM50.106 82.992V82.208H50.066V82.992H50.106ZM50.0773 82.19C49.6785 82.3814 49.3297 82.484 49.038 82.484V82.524C49.3383 82.524 49.6934 82.4186 50.0946 82.226L50.0773 82.19ZM49.018 82.504V82.752H49.058V82.504H49.018ZM49.038 82.772C49.2985 82.772 49.4551 82.7842 49.5464 82.8159C49.5914 82.8315 49.6184 82.8512 49.6346 82.8747C49.6508 82.8983 49.658 82.9282 49.658 82.968H49.698C49.698 82.9238 49.6901 82.8847 49.6676 82.852C49.645 82.8193 49.6095 82.7955 49.5595 82.7781C49.4608 82.7438 49.2974 82.732 49.038 82.732V82.772ZM49.658 82.968V85.416H49.698V82.968H49.658ZM52.2138 85.744V85.724H52.1938V85.744H52.2138ZM52.2138 85.992H52.1938V86.012H52.2138V85.992ZM54.2618 85.992V86.012H54.2818V85.992H54.2618ZM54.2618 85.744H54.2818V85.724H54.2618V85.744ZM53.4458 82.208H53.4658V82.1744L53.4363 82.1904L53.4458 82.208ZM52.4298 82.52V82.5H52.4098V82.52H52.4298ZM52.4298 82.768H52.4098V82.7886L52.4304 82.788L52.4298 82.768ZM53.0258 85.456C53.0258 85.5534 52.985 85.6193 52.9243 85.6616C52.8627 85.7045 52.7792 85.724 52.6938 85.724V85.764C52.7844 85.764 52.8768 85.7435 52.9472 85.6944C53.0185 85.6447 53.0658 85.5666 53.0658 85.456H53.0258ZM52.6938 85.724H52.2138V85.764H52.6938V85.724ZM52.1938 85.744V85.992H52.2338V85.744H52.1938ZM52.2138 86.012H54.2618V85.972H52.2138V86.012ZM54.2818 85.992V85.744H54.2418V85.992H54.2818ZM54.2618 85.724H53.7818V85.764H54.2618V85.724ZM53.7818 85.724C53.7081 85.724 53.6285 85.7084 53.568 85.6674C53.5086 85.6273 53.4658 85.5615 53.4658 85.456H53.4258C53.4258 85.5745 53.4749 85.6527 53.5456 85.7006C53.6151 85.7476 53.7035 85.764 53.7818 85.764V85.724ZM53.4658 85.456V82.208H53.4258V85.456H53.4658ZM53.4363 82.1904C53.0538 82.3976 52.7212 82.5 52.4298 82.5V82.54C52.7304 82.54 53.0697 82.4344 53.4553 82.2256L53.4363 82.1904ZM52.4098 82.52V82.768H52.4498V82.52H52.4098ZM52.4304 82.788C52.5708 82.784 52.7223 82.7822 52.8385 82.8075C52.8966 82.8202 52.9437 82.8393 52.976 82.8665C53.0075 82.8931 53.0258 82.928 53.0258 82.976H53.0658C53.0658 82.916 53.0421 82.8699 53.0018 82.836C52.9624 82.8027 52.908 82.7818 52.847 82.7685C52.7253 82.7418 52.5688 82.744 52.4292 82.748L52.4304 82.788ZM53.0258 82.976V85.456H53.0658V82.976H53.0258ZM53.2538 80.068C53.1412 80.068 53.0496 80.1057 52.9863 80.1722C52.9231 80.2386 52.8898 80.3319 52.8898 80.44H52.9298C52.9298 80.3401 52.9605 80.2574 53.0153 80.1998C53.0699 80.1423 53.1504 80.108 53.2538 80.108V80.068ZM52.8898 80.44C52.8898 80.5358 52.9189 80.6326 52.9794 80.7057C53.0402 80.7794 53.1319 80.828 53.2538 80.828V80.788C53.1436 80.788 53.0633 80.7446 53.0102 80.6803C52.9567 80.6154 52.9298 80.5282 52.9298 80.44H52.8898ZM53.2538 80.828C53.4557 80.828 53.6498 80.6601 53.6498 80.44H53.6098C53.6098 80.6359 53.4359 80.788 53.2538 80.788V80.828ZM53.6498 80.44C53.6498 80.2193 53.471 80.068 53.2538 80.068V80.108C53.4525 80.108 53.6098 80.2447 53.6098 80.44H53.6498ZM55.6641 82.792L55.6494 82.7785L55.6491 82.7787L55.6641 82.792ZM57.6081 82.784L57.6235 82.7712L57.6232 82.7709L57.6081 82.784ZM58.4441 84.168C58.4441 83.4638 58.2287 82.9386 57.8966 82.5892C57.5645 82.2399 57.1171 82.068 56.6561 82.068V82.108C57.1071 82.108 57.5437 82.2761 57.8676 82.6168C58.1915 82.9574 58.4041 83.4722 58.4041 84.168H58.4441ZM56.6561 82.068C56.2916 82.068 55.8327 82.2056 55.4647 82.5371C55.0962 82.8692 54.8201 83.3948 54.8201 84.168H54.8601C54.8601 83.4052 55.132 82.8908 55.4915 82.5669C55.8515 82.2424 56.3006 82.108 56.6561 82.108V82.068ZM54.8201 84.168C54.8201 84.5993 54.9409 85.1017 55.231 85.4968C55.5216 85.8928 55.9815 86.18 56.6561 86.18V86.14C55.9947 86.14 55.5466 85.8592 55.2632 85.4732C54.9793 85.0863 54.8601 84.5927 54.8601 84.168H54.8201ZM56.6561 86.18C57.2948 86.18 57.7427 85.9007 58.0302 85.5088C58.3172 85.1177 58.4441 84.6153 58.4441 84.168H58.4041C58.4041 84.6087 58.279 85.1023 57.998 85.4852C57.7175 85.8673 57.2814 86.14 56.6561 86.14V86.18ZM57.9481 84.168C57.9481 84.502 57.8824 84.9322 57.6877 85.2782C57.4936 85.623 57.1717 85.884 56.6561 85.884V85.924C57.1885 85.924 57.5226 85.653 57.7225 85.2978C57.9218 84.9438 57.9881 84.506 57.9881 84.168H57.9481ZM56.6561 85.884C56.0885 85.884 55.7527 85.601 55.5576 85.2454C55.3619 84.8885 55.3081 84.4582 55.3081 84.168H55.2681C55.2681 84.4618 55.3223 84.8995 55.5226 85.2646C55.7235 85.631 56.0717 85.924 56.6561 85.924V85.884ZM55.3081 84.168C55.3081 83.5457 55.4279 83.0878 55.679 82.8053L55.6491 82.7787C55.3882 83.0722 55.2681 83.5423 55.2681 84.168H55.3081ZM55.6788 82.8055C55.9473 82.5134 56.2701 82.364 56.6561 82.364V82.324C56.2581 82.324 55.9249 82.4786 55.6494 82.7785L55.6788 82.8055ZM56.6561 82.364C57.0341 82.364 57.3486 82.5133 57.5929 82.7971L57.6232 82.7709C57.3716 82.4787 57.0461 82.324 56.6561 82.324V82.364ZM57.5927 82.7968C57.8283 83.0794 57.9481 83.5377 57.9481 84.168H57.9881C57.9881 83.5343 57.8679 83.0646 57.6235 82.7712L57.5927 82.7968ZM58.9133 85.744V85.724H58.8933V85.744H58.9133ZM58.9133 85.992H58.8933V86.012H58.9133V85.992ZM60.5373 85.992V86.012H60.5573V85.992H60.5373ZM60.5373 85.744H60.5573V85.724H60.5373V85.744ZM59.9453 83.504L59.9253 83.4951V83.504H59.9453ZM61.2333 82.744L61.2175 82.7562L61.2333 82.744ZM59.9453 82.992H59.9253V83.054L59.9616 83.0037L59.9453 82.992ZM59.9453 82.208H59.9653V82.1762L59.9367 82.19L59.9453 82.208ZM58.8973 82.504V82.484H58.8773V82.504H58.8973ZM58.8973 82.752H58.8773V82.772H58.8973V82.752ZM59.5173 85.416C59.5173 85.4968 59.5074 85.5548 59.4871 85.5969C59.4672 85.6382 59.4366 85.6657 59.3916 85.6845C59.3458 85.7037 59.285 85.7138 59.2053 85.7189C59.1258 85.724 59.0296 85.724 58.9133 85.724V85.764C59.0291 85.764 59.1268 85.764 59.2079 85.7588C59.2887 85.7537 59.3549 85.7433 59.4071 85.7215C59.4601 85.6993 59.4985 85.6653 59.5231 85.6143C59.5473 85.5642 59.5573 85.4992 59.5573 85.416H59.5173ZM58.8933 85.744V85.992H58.9333V85.744H58.8933ZM58.9133 86.012H60.5373V85.972H58.9133V86.012ZM60.5573 85.992V85.744H60.5173V85.992H60.5573ZM60.5373 85.724H60.2413V85.764H60.5373V85.724ZM60.2413 85.724C60.126 85.724 60.06 85.7057 60.0212 85.6626C59.9818 85.6188 59.9653 85.544 59.9653 85.416H59.9253C59.9253 85.544 59.9409 85.6332 59.9915 85.6894C60.0427 85.7463 60.1247 85.764 60.2413 85.764V85.724ZM59.9653 85.416V83.504H59.9253V85.416H59.9653ZM59.9636 83.5121C60.0909 83.2257 60.2396 83.0022 60.4001 82.8505C60.5605 82.699 60.7318 82.62 60.9053 82.62V82.58C60.7189 82.58 60.5382 82.665 60.3726 82.8215C60.2071 82.9778 60.0558 83.2063 59.9271 83.4959L59.9636 83.5121ZM60.9053 82.62C61.0449 82.62 61.1422 82.6583 61.2175 82.7562L61.2492 82.7318C61.1645 82.6217 61.0538 82.58 60.9053 82.58V82.62ZM61.2175 82.7562C61.301 82.8648 61.4107 82.924 61.5533 82.924V82.884C61.424 82.884 61.3257 82.8312 61.2492 82.7318L61.2175 82.7562ZM61.5533 82.924C61.6368 82.924 61.7099 82.901 61.7623 82.8562C61.8152 82.8111 61.8453 82.7453 61.8453 82.664H61.8053C61.8053 82.7347 61.7795 82.7889 61.7364 82.8258C61.6928 82.863 61.6298 82.884 61.5533 82.884V82.924ZM61.8453 82.664C61.8453 82.5611 61.8232 82.4789 61.7845 82.4138C61.7459 82.3487 61.6914 82.3018 61.6288 82.2684C61.5042 82.2019 61.346 82.188 61.2093 82.188V82.228C61.3447 82.228 61.4945 82.2421 61.6099 82.3036C61.6673 82.3342 61.7158 82.3763 61.7501 82.4342C61.7845 82.4921 61.8053 82.5669 61.8053 82.664H61.8453ZM61.2093 82.188C60.8673 82.188 60.583 82.3367 60.3669 82.5094C60.1507 82.6821 60.0015 82.8798 59.9291 82.9803L59.9616 83.0037C60.0332 82.9042 60.18 82.7099 60.3918 82.5406C60.6037 82.3713 60.8794 82.228 61.2093 82.228V82.188ZM59.9653 82.992V82.208H59.9253V82.992H59.9653ZM59.9367 82.19C59.5379 82.3814 59.189 82.484 58.8973 82.484V82.524C59.1977 82.524 59.5528 82.4186 59.954 82.226L59.9367 82.19ZM58.8773 82.504V82.752H58.9173V82.504H58.8773ZM58.8973 82.772C59.1579 82.772 59.3145 82.7842 59.4058 82.8159C59.4508 82.8315 59.4778 82.8512 59.494 82.8747C59.5102 82.8983 59.5173 82.9282 59.5173 82.968H59.5573C59.5573 82.9238 59.5495 82.8847 59.5269 82.852C59.5044 82.8193 59.4689 82.7955 59.4189 82.7781C59.3202 82.7438 59.1568 82.732 58.8973 82.732V82.772ZM59.5173 82.968V85.416H59.5573V82.968H59.5173ZM68.257 81.704V81.724H68.2848L68.2759 81.6976L68.257 81.704ZM67.785 80.296L67.8039 80.2896L67.7994 80.276H67.785V80.296ZM67.713 80.296V80.2701L67.7003 80.2805L67.713 80.296ZM67.489 80.48L67.4796 80.4977L67.4914 80.5039L67.5017 80.4955L67.489 80.48ZM64.809 82.64L64.8248 82.6277L64.8248 82.6277L64.809 82.64ZM66.361 83.312L66.3577 83.3317L66.358 83.3318L66.361 83.312ZM64.377 84.464L64.3927 84.4516L64.3867 84.444H64.377V84.464ZM64.177 84.464V84.444H64.1473L64.1584 84.4715L64.177 84.464ZM64.737 85.848L64.7184 85.8555L64.7235 85.868H64.737V85.848ZM64.809 85.848V85.868H64.8173L64.8231 85.8621L64.809 85.848ZM65.041 85.616L65.0499 85.5981L65.037 85.5917L65.0268 85.6019L65.041 85.616ZM67.953 83.448L67.9396 83.4629L67.9398 83.4631L67.953 83.448ZM66.361 82.872L66.3573 82.8917L66.3583 82.8918L66.361 82.872ZM68.049 81.704L68.0315 81.7138L68.0373 81.724H68.049V81.704ZM68.2759 81.6976L67.8039 80.2896L67.766 80.3024L68.238 81.7104L68.2759 81.6976ZM67.785 80.276H67.713V80.316H67.785V80.276ZM67.7003 80.2805L67.4763 80.4645L67.5017 80.4955L67.7257 80.3115L67.7003 80.2805ZM67.4984 80.4623C66.9851 80.1897 66.5497 80.052 66.185 80.052V80.092C66.5403 80.092 66.9689 80.2263 67.4796 80.4977L67.4984 80.4623ZM66.185 80.052C65.2804 80.052 64.453 80.7066 64.453 81.648H64.493C64.493 80.7334 65.2975 80.092 66.185 80.092V80.052ZM64.453 81.648C64.453 82.0284 64.5664 82.3607 64.7932 82.6523L64.8248 82.6277C64.6035 82.3433 64.493 82.0196 64.493 81.648H64.453ZM64.7932 82.6523C65.0461 82.9787 65.573 83.2036 66.3577 83.3317L66.3642 83.2923C65.581 83.1644 65.0678 82.9413 64.8248 82.6277L64.7932 82.6523ZM66.358 83.3318C67.0514 83.4354 67.459 83.6462 67.693 83.8743C67.9267 84.1022 67.989 84.3488 67.989 84.528H68.029C68.029 84.3392 67.9632 84.0818 67.7209 83.8457C67.479 83.6098 67.0625 83.3966 66.3639 83.2922L66.358 83.3318ZM67.989 84.528C67.989 85.2189 67.3441 85.804 66.553 85.804V85.844C67.3618 85.844 68.029 85.2451 68.029 84.528H67.989ZM66.553 85.804C65.6669 85.804 64.9522 85.163 64.3927 84.4516L64.3612 84.4764C64.9218 85.189 65.647 85.844 66.553 85.844V85.804ZM64.377 84.444H64.177V84.484H64.377V84.444ZM64.1584 84.4715L64.7184 85.8555L64.7555 85.8405L64.1955 84.4565L64.1584 84.4715ZM64.737 85.868H64.809V85.828H64.737V85.868ZM64.8231 85.8621L65.0551 85.6301L65.0268 85.6019L64.7948 85.8339L64.8231 85.8621ZM65.032 85.6339C65.6411 85.9384 66.1484 86.092 66.553 86.092V86.052C66.1575 86.052 65.6568 85.9016 65.0499 85.5981L65.032 85.6339ZM66.553 86.092C67.6428 86.092 68.437 85.3242 68.437 84.344H68.397C68.397 85.2998 67.6231 86.052 66.553 86.052V86.092ZM68.437 84.344C68.437 84.0169 68.2814 83.7078 67.9661 83.4329L67.9398 83.4631C68.2486 83.7322 68.397 84.0311 68.397 84.344H68.437ZM67.9663 83.4331C67.6579 83.1571 67.1251 82.9564 66.3637 82.8522L66.3583 82.8918C67.1169 82.9956 67.6401 83.1949 67.9396 83.4629L67.9663 83.4331ZM66.3646 82.8523C66.0206 82.7883 65.6545 82.7009 65.3744 82.5056C65.0959 82.3114 64.901 82.0096 64.901 81.512H64.861C64.861 82.0224 65.062 82.3366 65.3515 82.5384C65.6394 82.7391 66.0133 82.8277 66.3573 82.8917L66.3646 82.8523ZM64.901 81.512C64.901 80.8918 65.4112 80.34 66.185 80.34V80.3C65.3907 80.3 64.861 80.8682 64.861 81.512H64.901ZM66.185 80.34C67.1489 80.34 67.6318 81.0022 68.0315 81.7138L68.0664 81.6942C67.6662 80.9818 67.1731 80.3 66.185 80.3V80.34ZM68.049 81.724H68.257V81.684H68.049V81.724ZM70.1126 82.536V82.516H70.0926V82.536H70.1126ZM71.2246 82.536V82.556H71.2446V82.536H71.2246ZM71.2246 82.288H71.2446V82.268H71.2246V82.288ZM70.1126 82.288H70.0926V82.308H70.1126V82.288ZM70.1126 80.592H70.1326V80.572H70.1126V80.592ZM69.8886 80.592V80.572H69.8686V80.592H69.8886ZM68.9766 82.288V82.268H68.9566V82.288H68.9766ZM68.9766 82.536H68.9566V82.556H68.9766V82.536ZM69.7046 82.536H69.7246V82.516H69.7046V82.536ZM71.5766 85.432L71.5911 85.4457L71.6048 85.4313L71.5904 85.4175L71.5766 85.432ZM71.4006 85.264L71.4144 85.2495L71.3994 85.2352L71.3856 85.2507L71.4006 85.264ZM70.1126 82.556H71.2246V82.516H70.1126V82.556ZM71.2446 82.536V82.288H71.2046V82.536H71.2446ZM71.2246 82.268H70.1126V82.308H71.2246V82.268ZM70.1326 82.288V80.592H70.0926V82.288H70.1326ZM70.1126 80.572H69.8886V80.612H70.1126V80.572ZM69.8686 80.592C69.8686 81.1923 69.8263 81.6119 69.6937 81.8812C69.6277 82.015 69.5397 82.1112 69.4234 82.1742C69.3069 82.2373 69.1605 82.268 68.9766 82.268V82.308C69.1647 82.308 69.3183 82.2767 69.4425 82.2093C69.567 82.1418 69.6605 82.039 69.7295 81.8988C69.8669 81.6201 69.9086 81.1917 69.9086 80.592H69.8686ZM68.9566 82.288V82.536H68.9966V82.288H68.9566ZM68.9766 82.556H69.7046V82.516H68.9766V82.556ZM69.6846 82.536V85.008H69.7246V82.536H69.6846ZM69.6846 85.008C69.6846 85.2532 69.7186 85.5174 69.8363 85.721C69.9549 85.9263 70.1576 86.068 70.4886 86.068V86.028C70.1716 86.028 69.9823 85.8937 69.8709 85.701C69.7585 85.5066 69.7246 85.2508 69.7246 85.008H69.6846ZM70.4886 86.068C70.7319 86.068 70.9096 86.0172 71.0762 85.913C71.2417 85.8094 71.3954 85.6534 71.5911 85.4457L71.562 85.4183C71.3658 85.6266 71.2155 85.7786 71.055 85.879C70.8955 85.9788 70.7253 86.028 70.4886 86.028V86.068ZM71.5904 85.4175L71.4144 85.2495L71.3868 85.2785L71.5628 85.4465L71.5904 85.4175ZM71.3856 85.2507C71.2263 85.4299 71.0796 85.5626 70.9475 85.6503C70.8152 85.7382 70.6991 85.78 70.6006 85.78V85.82C70.7101 85.82 70.834 85.7738 70.9697 85.6837C71.1056 85.5934 71.2548 85.4581 71.4155 85.2773L71.3856 85.2507ZM70.6006 85.78C70.4908 85.78 70.4079 85.7609 70.345 85.7262C70.2824 85.6918 70.2381 85.6411 70.2066 85.5754C70.1429 85.4421 70.1326 85.2488 70.1326 85.008H70.0926C70.0926 85.2472 70.1023 85.4499 70.1706 85.5926C70.2051 85.6649 70.2548 85.7222 70.3257 85.7613C70.3963 85.8001 70.4864 85.82 70.6006 85.82V85.78ZM70.1326 85.008V82.536H70.0926V85.008H70.1326ZM73.7792 85.736L73.7973 85.7445L73.8013 85.7361L73.7974 85.7276L73.7792 85.736ZM73.6672 85.976L73.6851 85.9849L73.6853 85.9845L73.6672 85.976ZM72.8272 86.304L72.8158 86.3204L72.8161 86.3206L72.8272 86.304ZM73.9472 85.912L73.9291 85.9036L73.929 85.9037L73.9472 85.912ZM75.3952 82.8L75.4134 82.8085L75.4138 82.8073L75.3952 82.8ZM76.1952 82.512V82.532H76.2152V82.512H76.1952ZM76.1952 82.264H76.2152V82.244H76.1952V82.264ZM74.6352 82.264V82.244H74.6152V82.264H74.6352ZM74.6352 82.512H74.6152V82.532H74.6352V82.512ZM75.1632 82.808L75.1813 82.8165L75.1816 82.8159L75.1632 82.808ZM73.9952 85.28L73.977 85.2883L73.9948 85.3276L74.0133 85.2885L73.9952 85.28ZM72.8672 82.792L72.8854 82.7837L72.8851 82.7831L72.8672 82.792ZM73.3232 82.512V82.532H73.3432V82.512H73.3232ZM73.3232 82.264H73.3432V82.244H73.3232V82.264ZM71.8192 82.264V82.244H71.7992V82.264H71.8192ZM71.8192 82.512H71.7992V82.532H71.8192V82.512ZM72.4432 82.832L72.425 82.8402L72.425 82.8404L72.4432 82.832ZM73.7611 85.7275L73.6491 85.9675L73.6853 85.9845L73.7973 85.7445L73.7611 85.7275ZM73.6493 85.9671C73.508 86.2497 73.3062 86.38 73.0592 86.38V86.42C73.3242 86.42 73.5384 86.2783 73.6851 85.9849L73.6493 85.9671ZM73.0592 86.38C73.0016 86.38 72.9339 86.3511 72.8383 86.2874L72.8161 86.3206C72.9126 86.3849 72.9889 86.42 73.0592 86.42V86.38ZM72.8386 86.2876C72.7328 86.2143 72.6248 86.172 72.5312 86.172V86.212C72.6136 86.212 72.7137 86.2497 72.8158 86.3204L72.8386 86.2876ZM72.5312 86.172C72.505 86.172 72.4388 86.1784 72.3784 86.2172C72.3166 86.2569 72.2632 86.3293 72.2632 86.456H72.3032C72.3032 86.3427 72.3498 86.2831 72.4 86.2508C72.4517 86.2176 72.5094 86.212 72.5312 86.212V86.172ZM72.2632 86.456C72.2632 86.6049 72.3467 86.7107 72.461 86.7782C72.5748 86.8455 72.7206 86.876 72.8512 86.876V86.836C72.7259 86.836 72.5876 86.8065 72.4814 86.7438C72.3757 86.6813 72.3032 86.5871 72.3032 86.456H72.2632ZM72.8512 86.876C73.2463 86.876 73.6598 86.5879 73.9654 85.9203L73.929 85.9037C73.6267 86.5641 73.2242 86.836 72.8512 86.836V86.876ZM73.9654 85.9204L75.4134 82.8084L75.3771 82.7916L73.9291 85.9036L73.9654 85.9204ZM75.4138 82.8073C75.4634 82.6816 75.5545 82.613 75.6486 82.5756C75.7432 82.5379 75.8403 82.532 75.8992 82.532V82.492C75.8381 82.492 75.7352 82.4981 75.6338 82.5384C75.5319 82.579 75.4311 82.6544 75.3766 82.7927L75.4138 82.8073ZM75.8992 82.532H76.1952V82.492H75.8992V82.532ZM76.2152 82.512V82.264H76.1752V82.512H76.2152ZM76.1952 82.244H74.6352V82.284H76.1952V82.244ZM74.6152 82.264V82.512H74.6552V82.264H74.6152ZM74.6352 82.532H74.9952V82.492H74.6352V82.532ZM74.9952 82.532C75.0614 82.532 75.1087 82.5438 75.1389 82.5645C75.1678 82.5843 75.1832 82.6138 75.1832 82.656H75.2232C75.2232 82.6022 75.2026 82.5597 75.1615 82.5315C75.1217 82.5042 75.065 82.492 74.9952 82.492V82.532ZM75.1832 82.656C75.1832 82.6919 75.1685 82.7449 75.1448 82.8001L75.1816 82.8159C75.2059 82.7591 75.2232 82.7001 75.2232 82.656H75.1832ZM75.1451 82.7995L73.9771 85.2715L74.0133 85.2885L75.1813 82.8165L75.1451 82.7995ZM74.0134 85.2717L72.8854 82.7837L72.849 82.8003L73.977 85.2883L74.0134 85.2717ZM72.8851 82.7831C72.8539 82.7206 72.8392 82.6677 72.8392 82.624H72.7992C72.7992 82.6763 72.8166 82.7354 72.8493 82.8009L72.8851 82.7831ZM72.8392 82.624C72.8392 82.5929 72.8493 82.5714 72.8683 82.5569C72.8883 82.5417 72.9212 82.532 72.9712 82.532V82.492C72.9172 82.492 72.8741 82.5023 72.8441 82.5251C72.8131 82.5486 72.7992 82.5831 72.7992 82.624H72.8392ZM72.9712 82.532H73.3232V82.492H72.9712V82.532ZM73.3432 82.512V82.264H73.3032V82.512H73.3432ZM73.3232 82.244H71.8192V82.284H73.3232V82.244ZM71.7992 82.264V82.512H71.8392V82.264H71.7992ZM71.8192 82.532C71.9095 82.532 71.9836 82.532 72.0468 82.5369C72.1099 82.5419 72.1607 82.5516 72.2043 82.5704C72.2904 82.6074 72.3537 82.6817 72.425 82.8402L72.4615 82.8238C72.3888 82.6623 72.3201 82.5766 72.2201 82.5336C72.1708 82.5124 72.1151 82.5021 72.0499 82.4971C71.9848 82.492 71.909 82.492 71.8192 82.492V82.532ZM72.425 82.8404L73.7611 85.7444L73.7974 85.7276L72.4614 82.8236L72.425 82.8404ZM76.5966 85.744V85.724H76.5766V85.744H76.5966ZM76.5966 85.992H76.5766V86.012H76.5966V85.992ZM78.6126 85.992V86.012H78.6326V85.992H78.6126ZM78.6126 85.744H78.6326V85.724H78.6126V85.744ZM77.8046 80.096H77.8246V80.0618L77.7948 80.0786L77.8046 80.096ZM76.7886 80.424V80.404H76.7686V80.424H76.7886ZM76.7886 80.672H76.7686V80.692H76.7886V80.672ZM77.3486 80.728L77.3344 80.7422L77.3361 80.7436L77.3486 80.728ZM77.3766 85.392C77.3766 85.4647 77.3742 85.5471 77.3354 85.6117C77.2981 85.6739 77.2239 85.724 77.0686 85.724V85.764C77.2333 85.764 77.3231 85.7101 77.3697 85.6323C77.415 85.5569 77.4166 85.4633 77.4166 85.392H77.3766ZM77.0686 85.724H76.5966V85.764H77.0686V85.724ZM76.5766 85.744V85.992H76.6166V85.744H76.5766ZM76.5966 86.012H78.6126V85.972H76.5966V86.012ZM78.6326 85.992V85.744H78.5926V85.992H78.6326ZM78.6126 85.724H78.0846V85.764H78.6126V85.724ZM78.0846 85.724C77.97 85.724 77.9072 85.6844 77.8716 85.6265C77.8347 85.5666 77.8246 85.4835 77.8246 85.392H77.7846C77.7846 85.4845 77.7944 85.5774 77.8376 85.6475C77.8819 85.7196 77.9592 85.764 78.0846 85.764V85.724ZM77.8246 85.392V80.096H77.7846V85.392H77.8246ZM77.7948 80.0786C77.4123 80.2937 77.0718 80.404 76.7886 80.404V80.444C77.0814 80.444 77.4289 80.3303 77.8144 80.1134L77.7948 80.0786ZM76.7686 80.424V80.672H76.8086V80.424H76.7686ZM76.7886 80.692C76.9524 80.692 77.0817 80.696 77.1747 80.7049C77.2212 80.7094 77.2581 80.715 77.2855 80.7218C77.3139 80.7288 77.3286 80.7363 77.3345 80.7421L77.3627 80.7139C77.3486 80.6997 77.3242 80.6902 77.2952 80.683C77.265 80.6755 77.2259 80.6696 77.1785 80.6651C77.0835 80.656 76.9528 80.652 76.7886 80.652V80.692ZM77.3361 80.7436C77.3518 80.7561 77.3619 80.7738 77.3682 80.7989C77.3746 80.8244 77.3766 80.8563 77.3766 80.896H77.4166C77.4166 80.8557 77.4146 80.8196 77.407 80.7891C77.3993 80.7582 77.3854 80.7319 77.3611 80.7124L77.3361 80.7436ZM77.3766 80.896V85.392H77.4166V80.896H77.3766ZM79.1357 85.744V85.724H79.1157V85.744H79.1357ZM79.1357 85.992H79.1157V86.012H79.1357V85.992ZM81.1837 85.992V86.012H81.2037V85.992H81.1837ZM81.1837 85.744H81.2037V85.724H81.1837V85.744ZM80.3677 82.208H80.3877V82.1744L80.3581 82.1904L80.3677 82.208ZM79.3517 82.52V82.5H79.3317V82.52H79.3517ZM79.3517 82.768H79.3317V82.7886L79.3522 82.788L79.3517 82.768ZM79.9477 85.456C79.9477 85.5534 79.9069 85.6193 79.8462 85.6616C79.7846 85.7045 79.7011 85.724 79.6157 85.724V85.764C79.7063 85.764 79.7987 85.7435 79.8691 85.6944C79.9404 85.6447 79.9877 85.5666 79.9877 85.456H79.9477ZM79.6157 85.724H79.1357V85.764H79.6157V85.724ZM79.1157 85.744V85.992H79.1557V85.744H79.1157ZM79.1357 86.012H81.1837V85.972H79.1357V86.012ZM81.2037 85.992V85.744H81.1637V85.992H81.2037ZM81.1837 85.724H80.7037V85.764H81.1837V85.724ZM80.7037 85.724C80.6299 85.724 80.5504 85.7084 80.4899 85.6674C80.4305 85.6273 80.3877 85.5615 80.3877 85.456H80.3477C80.3477 85.5745 80.3968 85.6527 80.4674 85.7006C80.5369 85.7476 80.6254 85.764 80.7037 85.764V85.724ZM80.3877 85.456V82.208H80.3477V85.456H80.3877ZM80.3581 82.1904C79.9757 82.3976 79.6431 82.5 79.3517 82.5V82.54C79.6522 82.54 79.9916 82.4344 80.3772 82.2256L80.3581 82.1904ZM79.3317 82.52V82.768H79.3717V82.52H79.3317ZM79.3522 82.788C79.4927 82.784 79.6442 82.7822 79.7604 82.8075C79.8184 82.8202 79.8656 82.8393 79.8979 82.8665C79.9294 82.8931 79.9477 82.928 79.9477 82.976H79.9877C79.9877 82.916 79.9639 82.8699 79.9237 82.836C79.8842 82.8027 79.8299 82.7818 79.7689 82.7685C79.6471 82.7418 79.4906 82.744 79.3511 82.748L79.3522 82.788ZM79.9477 82.976V85.456H79.9877V82.976H79.9477ZM80.1757 80.068C80.063 80.068 79.9715 80.1057 79.9082 80.1722C79.845 80.2386 79.8117 80.3319 79.8117 80.44H79.8517C79.8517 80.3401 79.8823 80.2574 79.9371 80.1998C79.9918 80.1423 80.0723 80.108 80.1757 80.108V80.068ZM79.8117 80.44C79.8117 80.5358 79.8408 80.6326 79.9012 80.7057C79.9621 80.7794 80.0538 80.828 80.1757 80.828V80.788C80.0655 80.788 79.9852 80.7446 79.9321 80.6803C79.8785 80.6154 79.8517 80.5282 79.8517 80.44H79.8117ZM80.1757 80.828C80.3776 80.828 80.5717 80.6601 80.5717 80.44H80.5317C80.5317 80.6359 80.3577 80.788 80.1757 80.788V80.828ZM80.5717 80.44C80.5717 80.2193 80.3929 80.068 80.1757 80.068V80.108C80.3744 80.108 80.5317 80.2447 80.5317 80.44H80.5717ZM81.714 84.888L81.7083 84.8688L81.6891 84.8745L81.6948 84.8937L81.714 84.888ZM82.05 86.016L82.0308 86.0217L82.0351 86.036H82.05V86.016ZM82.178 86.016V86.036H82.1867L82.1926 86.0296L82.178 86.016ZM82.378 85.8L82.3887 85.7831L82.3746 85.7742L82.3633 85.7864L82.378 85.8ZM83.322 83.832L83.3271 83.8126L83.3262 83.8125L83.322 83.832ZM84.394 83.24L84.377 83.2506L84.3829 83.26H84.394V83.24ZM84.546 83.24V83.26H84.5751L84.5646 83.2328L84.546 83.24ZM84.138 82.184L84.1566 82.1768L84.1517 82.164H84.138V82.184ZM84.058 82.184V82.164H84.0491L84.0432 82.1705L84.058 82.184ZM83.89 82.368L83.88 82.3853L83.8939 82.3933L83.9047 82.3815L83.89 82.368ZM82.114 83.728L82.1293 83.7151L82.1285 83.7142L82.114 83.728ZM83.322 84.24L83.3273 84.2207L83.3266 84.2206L83.322 84.24ZM82.546 85.64L82.5565 85.6229L82.5553 85.6223L82.546 85.64ZM81.85 84.848L81.8677 84.8388L81.8601 84.8242L81.8443 84.8288L81.85 84.848ZM81.6948 84.8937L82.0308 86.0217L82.0691 86.0103L81.7331 84.8823L81.6948 84.8937ZM82.05 86.036H82.178V85.996H82.05V86.036ZM82.1926 86.0296L82.3926 85.8136L82.3633 85.7864L82.1633 86.0024L82.1926 86.0296ZM82.3672 85.8169C82.7214 86.0423 83.0611 86.156 83.378 86.156V86.116C83.0708 86.116 82.7385 86.0057 82.3887 85.7831L82.3672 85.8169ZM83.378 86.156C84.1964 86.156 84.63 85.5957 84.63 85.088H84.59C84.59 85.5723 84.1756 86.116 83.378 86.116V86.156ZM84.63 85.088C84.63 84.6631 84.496 84.3929 84.2636 84.2045C84.0328 84.0174 83.7068 83.9126 83.3271 83.8127L83.3169 83.8513C83.6972 83.9514 84.0151 84.0546 84.2384 84.2355C84.4599 84.4151 84.59 84.6729 84.59 85.088H84.63ZM83.3262 83.8125C82.938 83.7284 82.6735 83.647 82.506 83.5363C82.4227 83.4813 82.3641 83.4194 82.3261 83.3468C82.288 83.2742 82.27 83.1896 82.27 83.088H82.23C82.23 83.1944 82.2489 83.2858 82.2906 83.3654C82.3324 83.4451 82.3962 83.5117 82.4839 83.5697C82.6584 83.685 82.9299 83.7676 83.3177 83.8515L83.3262 83.8125ZM82.27 83.088C82.27 82.9089 82.3361 82.7382 82.464 82.6122C82.5918 82.4864 82.7825 82.404 83.034 82.404V82.364C82.7734 82.364 82.5722 82.4496 82.4359 82.5838C82.2998 82.7178 82.23 82.8991 82.23 83.088H82.27ZM83.034 82.404C83.374 82.404 83.634 82.4948 83.8464 82.6453C84.0593 82.7961 84.2256 83.0076 84.377 83.2506L84.4109 83.2294C84.2583 82.9844 84.0887 82.7679 83.8695 82.6127C83.65 82.4572 83.3819 82.364 83.034 82.364V82.404ZM84.394 83.26H84.546V83.22H84.394V83.26ZM84.5646 83.2328L84.1566 82.1768L84.1193 82.1912L84.5273 83.2472L84.5646 83.2328ZM84.138 82.164H84.058V82.204H84.138V82.164ZM84.0432 82.1705L83.8752 82.3545L83.9047 82.3815L84.0727 82.1975L84.0432 82.1705ZM83.8999 82.3507C83.633 82.197 83.3416 82.116 83.034 82.116V82.156C83.3343 82.156 83.6189 82.235 83.88 82.3853L83.8999 82.3507ZM83.034 82.116C82.2796 82.116 81.862 82.6763 81.862 83.088H81.902C81.902 82.6997 82.3003 82.156 83.034 82.156V82.116ZM81.862 83.088C81.862 83.3481 81.9433 83.5774 82.0995 83.7418L82.1285 83.7142C81.9806 83.5586 81.902 83.3399 81.902 83.088H81.862ZM82.0987 83.7409C82.1857 83.8445 82.3333 83.9361 82.5363 84.0205C82.7397 84.105 83.0008 84.1833 83.3173 84.2594L83.3266 84.2206C83.0111 84.1447 82.7523 84.067 82.5516 83.9835C82.3506 83.8999 82.2102 83.8115 82.1293 83.7151L82.0987 83.7409ZM83.3167 84.2593C83.5921 84.3351 83.8184 84.4242 83.9758 84.5611C84.1321 84.6969 84.222 84.8812 84.222 85.152H84.262C84.262 84.8708 84.1679 84.6751 84.0021 84.5309C83.8375 84.3878 83.6038 84.2969 83.3273 84.2207L83.3167 84.2593ZM84.222 85.152C84.222 85.6008 83.8196 85.868 83.378 85.868V85.908C83.8323 85.908 84.262 85.6312 84.262 85.152H84.222ZM83.378 85.868C83.1099 85.868 82.8255 85.7892 82.5565 85.623L82.5355 85.657C82.8104 85.8268 83.102 85.908 83.378 85.908V85.868ZM82.5553 85.6223C82.2884 85.481 82.0668 85.221 81.8677 84.8388L81.8322 84.8572C82.0332 85.243 82.2596 85.511 82.5366 85.6577L82.5553 85.6223ZM81.8443 84.8288L81.7083 84.8688L81.7196 84.9072L81.8556 84.8672L81.8443 84.8288ZM86.2688 82.536V82.516H86.2488V82.536H86.2688ZM87.3808 82.536V82.556H87.4008V82.536H87.3808ZM87.3808 82.288H87.4008V82.268H87.3808V82.288ZM86.2688 82.288H86.2488V82.308H86.2688V82.288ZM86.2688 80.592H86.2888V80.572H86.2688V80.592ZM86.0448 80.592V80.572H86.0248V80.592H86.0448ZM85.1328 82.288V82.268H85.1128V82.288H85.1328ZM85.1328 82.536H85.1128V82.556H85.1328V82.536ZM85.8608 82.536H85.8808V82.516H85.8608V82.536ZM87.7328 85.432L87.7474 85.4457L87.761 85.4313L87.7467 85.4175L87.7328 85.432ZM87.5568 85.264L87.5707 85.2495L87.5557 85.2352L87.5419 85.2507L87.5568 85.264ZM86.2688 82.556H87.3808V82.516H86.2688V82.556ZM87.4008 82.536V82.288H87.3608V82.536H87.4008ZM87.3808 82.268H86.2688V82.308H87.3808V82.268ZM86.2888 82.288V80.592H86.2488V82.288H86.2888ZM86.2688 80.572H86.0448V80.612H86.2688V80.572ZM86.0248 80.592C86.0248 81.1923 85.9826 81.6119 85.8499 81.8812C85.784 82.015 85.6959 82.1112 85.5797 82.1742C85.4632 82.2373 85.3167 82.268 85.1328 82.268V82.308C85.3209 82.308 85.4745 82.2767 85.5988 82.2093C85.7233 82.1418 85.8167 82.039 85.8858 81.8988C86.0231 81.6201 86.0648 81.1917 86.0648 80.592H86.0248ZM85.1128 82.288V82.536H85.1528V82.288H85.1128ZM85.1328 82.556H85.8608V82.516H85.1328V82.556ZM85.8408 82.536V85.008H85.8808V82.536H85.8408ZM85.8408 85.008C85.8408 85.2532 85.8749 85.5174 85.9925 85.721C86.1112 85.9263 86.3138 86.068 86.6448 86.068V86.028C86.3279 86.028 86.1385 85.8937 86.0272 85.701C85.9148 85.5066 85.8808 85.2508 85.8808 85.008H85.8408ZM86.6448 86.068C86.8881 86.068 87.0659 86.0172 87.2325 85.913C87.398 85.8094 87.5517 85.6534 87.7474 85.4457L87.7183 85.4183C87.522 85.6266 87.3717 85.7786 87.2112 85.879C87.0518 85.9788 86.8816 86.028 86.6448 86.028V86.068ZM87.7467 85.4175L87.5707 85.2495L87.543 85.2785L87.719 85.4465L87.7467 85.4175ZM87.5419 85.2507C87.3826 85.4299 87.2359 85.5626 87.1038 85.6503C86.9715 85.7382 86.8554 85.78 86.7568 85.78V85.82C86.8663 85.82 86.9902 85.7738 87.1259 85.6837C87.2618 85.5934 87.4111 85.4581 87.5718 85.2773L87.5419 85.2507ZM86.7568 85.78C86.647 85.78 86.5642 85.7609 86.5012 85.7262C86.4386 85.6918 86.3943 85.6411 86.3629 85.5754C86.2992 85.4421 86.2888 85.2488 86.2888 85.008H86.2488C86.2488 85.2472 86.2585 85.4499 86.3268 85.5926C86.3613 85.6649 86.4111 85.7222 86.4819 85.7613C86.5525 85.8001 86.6426 85.82 86.7568 85.82V85.78ZM86.2888 85.008V82.536H86.2488V85.008H86.2888Z" fill="#3D358A"/>
<path d="M41.797 7.85448C47.1171 2.6251 54.2208 -0.196416 61.5453 0.0106421C68.8698 0.2177 75.8152 3.43637 80.8535 8.95858C85.8918 14.4808 88.6103 21.8542 88.4111 29.4567C88.2118 37.0592 85.1111 44.2681 79.791 49.4975L60.794 28.676L41.797 7.85448Z" fill="#AF5B82"/>
<path d="M79.7905 49.4978C74.4703 54.7271 67.3666 57.5485 60.0421 57.3414C52.7176 57.1342 45.7723 53.9154 40.7341 48.3931C35.6958 42.8709 32.9774 35.4974 33.1767 27.8949C33.3761 20.2924 36.4768 13.0838 41.797 7.85448L60.794 28.676L79.7905 49.4978Z" fill="#463A86"/>
<g filter="url(#filter0_d_62_44)">
<mask id="path-5-inside-1_62_44" fill="white">
<path fill-rule="evenodd" clip-rule="evenodd" d="M43.8622 10.7157C39.3136 15.4334 36.7568 21.8333 36.7544 28.5077L37.6778 28.508C37.6802 22.0879 40.1395 15.9317 44.5149 11.3937C48.8903 6.85574 54.8232 4.3077 61.0086 4.31015C67.1939 4.31259 73.125 6.86532 77.497 11.4068C81.8691 15.9482 84.3239 22.1063 84.3216 28.5265H84.3218C84.3195 34.9433 81.8626 41.0968 77.491 45.6343C73.1173 50.174 67.1853 52.7244 60.9999 52.7244C54.8146 52.7244 48.8825 50.174 44.5088 45.6343C40.1351 41.0946 37.678 34.9375 37.678 28.5173H36.7546C36.7546 35.1917 39.309 41.5926 43.8559 46.3121C48.4028 51.0315 54.5697 53.6829 60.9999 53.6829C67.4302 53.6829 73.597 51.0315 78.1439 46.3121C82.6908 41.5926 85.2452 35.1916 85.2452 28.5173H85.245C85.245 21.8464 82.6932 15.4483 78.1502 10.7293C73.6051 6.00803 67.4392 3.35423 61.0089 3.35169C54.5787 3.34915 48.4108 5.99807 43.8622 10.7157Z"/>
</mask>
<path fill-rule="evenodd" clip-rule="evenodd" d="M43.8622 10.7157C39.3136 15.4334 36.7568 21.8333 36.7544 28.5077L37.6778 28.508C37.6802 22.0879 40.1395 15.9317 44.5149 11.3937C48.8903 6.85574 54.8232 4.3077 61.0086 4.31015C67.1939 4.31259 73.125 6.86532 77.497 11.4068C81.8691 15.9482 84.3239 22.1063 84.3216 28.5265H84.3218C84.3195 34.9433 81.8626 41.0968 77.491 45.6343C73.1173 50.174 67.1853 52.7244 60.9999 52.7244C54.8146 52.7244 48.8825 50.174 44.5088 45.6343C40.1351 41.0946 37.678 34.9375 37.678 28.5173H36.7546C36.7546 35.1917 39.309 41.5926 43.8559 46.3121C48.4028 51.0315 54.5697 53.6829 60.9999 53.6829C67.4302 53.6829 73.597 51.0315 78.1439 46.3121C82.6908 41.5926 85.2452 35.1916 85.2452 28.5173H85.245C85.245 21.8464 82.6932 15.4483 78.1502 10.7293C73.6051 6.00803 67.4392 3.35423 61.0089 3.35169C54.5787 3.34915 48.4108 5.99807 43.8622 10.7157Z" fill="#D9D9D9"/>
<path d="M36.7544 28.5077L34.2544 28.5067L34.2535 31.0067L36.7534 31.0077L36.7544 28.5077ZM43.8622 10.7157L42.0625 8.9805L43.8622 10.7157ZM37.6778 28.508L37.6768 31.008L40.1769 31.009L40.1778 28.5089L37.6778 28.508ZM44.5149 11.3937L42.7152 9.6585L44.5149 11.3937ZM61.0086 4.31015L61.0096 1.81015L61.0086 4.31015ZM77.497 11.4068L75.696 13.1406V13.1406L77.497 11.4068ZM84.3216 28.5265L81.8216 28.5255L81.8207 31.0265H84.3216V28.5265ZM84.3218 28.5265L86.8218 28.5274L86.8227 26.0265H84.3218V28.5265ZM77.491 45.6343L79.2913 47.3689L79.2914 47.3689L77.491 45.6343ZM37.678 28.5173H40.178L40.178 26.0173H37.678V28.5173ZM36.7546 28.5173V26.0173H34.2546L34.2546 28.5173L36.7546 28.5173ZM43.8559 46.3121L42.0555 48.0466L42.0555 48.0466L43.8559 46.3121ZM60.9999 53.6829V56.1829H60.9999L60.9999 53.6829ZM78.1439 46.3121L76.3435 44.5775H76.3435L78.1439 46.3121ZM85.2452 28.5173H87.7452V26.0173H85.2452V28.5173ZM85.245 28.5173L82.745 28.5173L82.745 31.0173H85.245V28.5173ZM78.1502 10.7293L76.3492 12.4631L78.1502 10.7293ZM61.0089 3.35169L61.0079 5.85169L61.0089 3.35169ZM39.2544 28.5086C39.2566 22.4679 41.5715 16.6934 45.6619 12.451L42.0625 8.9805C37.0557 14.1734 34.2571 21.1988 34.2544 28.5067L39.2544 28.5086ZM37.6788 26.008L36.7554 26.0077L36.7534 31.0077L37.6768 31.008L37.6788 26.008ZM42.7152 9.6585C37.8816 14.6717 35.1804 21.4534 35.1778 28.5071L40.1778 28.5089C40.1799 22.7224 42.3975 17.1917 46.3146 13.1289L42.7152 9.6585ZM61.0096 1.81015C54.1305 1.80743 47.5518 4.64212 42.7152 9.6585L46.3146 13.1289C50.2287 9.06936 55.516 6.80798 61.0076 6.81015L61.0096 1.81015ZM79.2981 9.6729C74.4652 4.65275 67.8886 1.81286 61.0096 1.81015L61.0076 6.81015C66.4992 6.81232 71.7848 9.07788 75.696 13.1406L79.2981 9.6729ZM86.8216 28.5274C86.8242 21.4736 84.1279 14.6899 79.2981 9.6729L75.696 13.1406C79.6102 17.2065 81.8237 22.739 81.8216 28.5255L86.8216 28.5274ZM84.3218 26.0265H84.3216V31.0265H84.3218V26.0265ZM79.2914 47.3689C84.1208 42.3562 86.8192 35.5775 86.8218 28.5274L81.8218 28.5255C81.8197 34.3091 79.6044 39.8374 75.6906 43.8998L79.2914 47.3689ZM60.9999 55.2244C67.879 55.2244 74.4566 52.3871 79.2913 47.3689L75.6906 43.8998C71.7779 47.9609 66.4915 50.2244 60.9999 50.2244V55.2244ZM42.7085 47.3689C47.5432 52.3871 54.1208 55.2244 60.9999 55.2244V50.2244C55.5083 50.2244 50.2219 47.961 46.3092 43.8998L42.7085 47.3689ZM35.178 28.5173C35.178 35.5711 37.8768 42.3538 42.7085 47.3689L46.3092 43.8998C42.3935 39.8355 40.178 34.3038 40.178 28.5173L35.178 28.5173ZM36.7546 31.0173H37.678V26.0173H36.7546V31.0173ZM45.6563 44.5775C41.5674 40.3334 39.2546 34.558 39.2546 28.5173L34.2546 28.5173C34.2546 35.8253 37.0506 42.8518 42.0555 48.0466L45.6563 44.5775ZM60.9999 51.1829C55.2634 51.1829 49.7421 48.8184 45.6563 44.5775L42.0555 48.0466C47.0634 53.2446 53.8759 56.1829 60.9999 56.1829V51.1829ZM76.3435 44.5775C72.2577 48.8184 66.7364 51.1829 60.9999 51.1829L60.9999 56.1829C68.1239 56.1829 74.9364 53.2446 79.9443 48.0466L76.3435 44.5775ZM82.7452 28.5173C82.7452 34.558 80.4324 40.3334 76.3435 44.5775L79.9443 48.0466C84.9492 42.8518 87.7452 35.8253 87.7452 28.5173H82.7452ZM85.245 31.0173H85.2452V26.0173H85.245V31.0173ZM76.3492 12.4631C80.4346 16.7068 82.745 22.4797 82.745 28.5173L87.745 28.5173C87.745 21.2131 84.9518 14.1898 79.9513 8.99542L76.3492 12.4631ZM61.0079 5.85169C66.7445 5.85395 72.2649 8.22059 76.3492 12.4631L79.9513 8.99542C74.9453 3.79546 68.1339 0.854502 61.0099 0.851686L61.0079 5.85169ZM45.6619 12.451C49.7493 8.21169 55.2714 5.84942 61.0079 5.85169L61.0099 0.851686C53.8859 0.848871 47.0723 3.78445 42.0625 8.9805L45.6619 12.451Z" fill="#FFACAC" mask="url(#path-5-inside-1_62_44)"/>
</g>
<g filter="url(#filter1_d_62_44)">
<path d="M50.2335 36.0511C48.6215 36.0511 47.2002 35.6611 45.9695 34.8811C44.7562 34.1011 43.8202 33.0437 43.1615 31.7091C42.5029 30.3571 42.1735 28.8577 42.1735 27.2111C42.1735 25.5124 42.5289 23.9437 43.2395 22.5051C43.9675 21.0664 44.9469 19.9311 46.1775 19.0991C47.4255 18.2671 48.7775 17.8511 50.2335 17.8511C51.6202 17.8511 52.8335 18.0504 53.8735 18.4491C54.9309 18.8304 55.7109 19.3244 56.2135 19.9311C56.5082 20.2951 56.6902 20.7804 56.7595 21.3871C56.8289 21.9764 56.8635 22.7911 56.8635 23.8311H56.3435C56.0142 22.1497 55.4075 20.9104 54.5235 20.1131C53.6395 19.2984 52.4695 18.8911 51.0135 18.8911C49.1415 18.8911 47.6335 19.5497 46.4895 20.8671C45.3455 22.1844 44.7735 24.2991 44.7735 27.2111C44.7735 28.5804 44.9902 29.8544 45.4235 31.0331C45.8742 32.2117 46.5675 33.1737 47.5035 33.9191C48.4395 34.6471 49.6095 35.0111 51.0135 35.0111C52.2789 35.0111 53.3795 34.7077 54.3155 34.1011C55.2689 33.4944 56.1182 32.5844 56.8635 31.3711L57.3835 31.7611C56.5862 33.3211 55.5982 34.4304 54.4195 35.0891C53.2582 35.7304 51.8629 36.0511 50.2335 36.0511Z" fill="white"/>
</g>
<g filter="url(#filter2_d_62_44)">
<path d="M54.8076 29.9654C54.3743 28.9601 53.967 28.2754 53.5856 27.9114C53.2043 27.5301 52.6583 27.3048 51.9476 27.2354V26.7154C52.0343 26.7154 52.1643 26.7068 52.3376 26.6894C52.4936 26.6721 52.6583 26.6634 52.8316 26.6634C53.6983 26.6634 54.5303 26.8888 55.3276 27.3394C56.125 27.7728 56.801 28.6481 57.3556 29.9654L61.8016 40.4434L63.3356 36.8814C64.0636 35.2001 65.459 31.8808 67.5216 26.9234H68.7696L61.3076 44.3434H60.8396L54.8076 29.9654Z" fill="white"/>
</g>
<g filter="url(#filter3_d_62_44)">
<path d="M67.6403 19.4111C65.4737 19.4111 64.3903 20.4077 64.3903 22.4011H63.8703V20.4511C63.8703 19.0644 64.607 18.3711 66.0803 18.3711H78.1703V19.4111H72.3203V35.5311H69.9803V19.4111H67.6403Z" fill="white"/>
</g>
<defs>
<filter id="filter0_d_62_44" x="32.7544" y="3.35168" width="56.4907" height="58.3312" filterUnits="userSpaceOnUse" color-interpolation-filters="sRGB">
<feFlood flood-opacity="0" result="BackgroundImageFix"/>
<feColorMatrix in="SourceAlpha" type="matrix" values="0 0 0 0 0 0 0 0 0 0 0 0 0 0 0 0 0 0 127 0" result="hardAlpha"/>
<feOffset dy="4"/>
<feGaussianBlur stdDeviation="2"/>
<feComposite in2="hardAlpha" operator="out"/>
<feColorMatrix type="matrix" values="0 0 0 0 0 0 0 0 0 0 0 0 0 0 0 0 0 0 0.34 0"/>
<feBlend mode="normal" in2="BackgroundImageFix" result="effect1_dropShadow_62_44"/>
<feBlend mode="normal" in="SourceGraphic" in2="effect1_dropShadow_62_44" result="shape"/>
</filter>
<filter id="filter1_d_62_44" x="38.1736" y="17.8511" width="23.21" height="26.2" filterUnits="userSpaceOnUse" color-interpolation-filters="sRGB">
<feFlood flood-opacity="0" result="BackgroundImageFix"/>
<feColorMatrix in="SourceAlpha" type="matrix" values="0 0 0 0 0 0 0 0 0 0 0 0 0 0 0 0 0 0 127 0" result="hardAlpha"/>
<feOffset dy="4"/>
<feGaussianBlur stdDeviation="2"/>
<feComposite in2="hardAlpha" operator="out"/>
<feColorMatrix type="matrix" values="0 0 0 0 0 0 0 0 0 0 0 0 0 0 0 0 0 0 0.25 0"/>
<feBlend mode="normal" in2="BackgroundImageFix" result="effect1_dropShadow_62_44"/>
<feBlend mode="normal" in="SourceGraphic" in2="effect1_dropShadow_62_44" result="shape"/>
</filter>
<filter id="filter2_d_62_44" x="47.9475" y="26.6635" width="24.822" height="25.68" filterUnits="userSpaceOnUse" color-interpolation-filters="sRGB">
<feFlood flood-opacity="0" result="BackgroundImageFix"/>
<feColorMatrix in="SourceAlpha" type="matrix" values="0 0 0 0 0 0 0 0 0 0 0 0 0 0 0 0 0 0 127 0" result="hardAlpha"/>
<feOffset dy="4"/>
<feGaussianBlur stdDeviation="2"/>
<feComposite in2="hardAlpha" operator="out"/>
<feColorMatrix type="matrix" values="0 0 0 0 0 0 0 0 0 0 0 0 0 0 0 0 0 0 0.25 0"/>
<feBlend mode="normal" in2="BackgroundImageFix" result="effect1_dropShadow_62_44"/>
<feBlend mode="normal" in="SourceGraphic" in2="effect1_dropShadow_62_44" result="shape"/>
</filter>
<filter id="filter3_d_62_44" x="59.8704" y="18.3711" width="22.3" height="25.16" filterUnits="userSpaceOnUse" color-interpolation-filters="sRGB">
<feFlood flood-opacity="0" result="BackgroundImageFix"/>
<feColorMatrix in="SourceAlpha" type="matrix" values="0 0 0 0 0 0 0 0 0 0 0 0 0 0 0 0 0 0 127 0" result="hardAlpha"/>
<feOffset dy="4"/>
<feGaussianBlur stdDeviation="2"/>
<feComposite in2="hardAlpha" operator="out"/>
<feColorMatrix type="matrix" values="0 0 0 0 0 0 0 0 0 0 0 0 0 0 0 0 0 0 0.25 0"/>
<feBlend mode="normal" in2="BackgroundImageFix" result="effect1_dropShadow_62_44"/>
<feBlend mode="normal" in="SourceGraphic" in2="effect1_dropShadow_62_44" result="shape"/>
</filter>
<linearGradient id="paint0_linear_62_44" x1="61.5" y1="77" x2="61.5" y2="88" gradientUnits="userSpaceOnUse">
<stop offset="0.470376" stop-color="#C56D86"/>
<stop offset="1" stop-color="#3D358A"/>
</linearGradient>
</defs>
</svg>
